<svg xmlns="http://www.w3.org/2000/svg" viewBox="0 0 1069.44 653.64"><defs><style>.cls-1{fill:#d3fbe8;}.cls-2{fill:#72ecba;}.cls-3{fill:#00bec9;}.cls-4{fill:#a2e2e7;}.cls-5{fill:#f2fcfa;}</style></defs><title>firuletes_mobile</title><g id="Capa_2" data-name="Capa 2"><g id="Objects"><path class="cls-1" d="M264.61,198.8c95.94,39.67,81.15,160,134.06,224.32,56.48,68.69,166.42,104,321.72,56.21,292.71-90.12,414.75-373.22,244.79-463.72C859-40.91,771.71,88.21,661.72,133.19c-155,63.35-122.73-76.52-250.39-83C249.83,42.06,70.94,121.75,13.21,216.11c-29.37,48-9.29,60.46,55.39,37.22C145.67,225.64,187.52,166.93,264.61,198.8Z" transform="translate(0 -1.55)"/><path class="cls-2" d="M924.24,210.55c-84.32,18.88-193.21-33-280.66-39-93.35-6.43-194,15.5-208.7,93.06C417.34,357.34,510.16,411,715.31,450.18c107.8,20.6,104-23.91,113.45-80.57,13.33-79.82,100.75-6.13,168.28-49.2,85.42-54.47,94.5-149.16,31.24-206.28-32.18-29.06-53.82-26.72-62.48,5.36C955.48,157.71,992,195.37,924.24,210.55Z" transform="translate(0 -1.55)"/><polygon class="cls-3" points="899.46 144.6 893.03 144.6 893.03 138.18 886.08 138.18 886.08 144.6 879.66 144.6 879.66 151.55 886.08 151.55 886.08 157.98 893.03 157.98 893.03 151.55 899.46 151.55 899.46 144.6"/><polygon class="cls-3" points="497.58 282.87 491.16 282.87 491.16 276.44 484.21 276.44 484.21 282.87 477.79 282.87 477.79 289.81 484.21 289.81 484.21 296.24 491.16 296.24 491.16 289.81 497.58 289.81 497.58 282.87"/><polygon class="cls-4" points="547.91 101.69 538.88 101.69 538.88 92.66 529.11 92.66 529.11 101.69 520.08 101.69 520.08 111.46 529.11 111.46 529.11 120.49 538.88 120.49 538.88 111.46 547.91 111.46 547.91 101.69"/><polygon class="cls-3" points="623.93 322.88 605.61 322.88 605.61 304.56 585.8 304.56 585.8 322.88 567.48 322.88 567.48 342.68 585.8 342.68 585.8 361 605.61 361 605.61 342.68 623.93 342.68 623.93 322.88"/><path class="cls-5" d="M927.46,655.19c-45.22,0-91.14-17.73-127.81-49.71-26.59-23.2-32.39-58.06-37.51-88.82-7-42-13-78.31-65.41-79.2-21.88-.37-45,8.64-67.4,17.37-44.65,17.43-86.83,33.89-112.52-26.53-16.06-37.78-19.7-81.51-10.52-126.45C514.93,259.56,535,217.7,562.82,184c24-29,53.21-51.66,84.58-65.41,34.45-15.11,70.42-19.52,106.89-13.11,42.11,7.39,76.45,27.76,102.09,60.54,22.72,29,37.73,67.36,43.41,110.8,3.89,29.84.8,62.59-2.47,97.27C892.24,427.9,887,483.56,910,527.38c20.52,39,43.57,34.23,70.26,28.69,12.66-2.63,25.76-5.35,40.05-4,18.27,1.71,29.4,6.94,33.1,15.54,4,9.41-.92,22.58-14.72,39.14-23.15,27.81-58,44.83-98,47.95Q934.1,655.19,927.46,655.19ZM695.4,436.66h1.35c24.24.42,40.26,8.26,50.4,24.69,9,14.63,12.31,34.32,15.78,55.17,5.35,32.13,10.88,65.35,37.26,88.36,40.09,35,91.26,52.84,140.43,49,39.84-3.09,74.45-20,97.47-47.65,13.59-16.33,18.5-29.23,14.59-38.34-3.57-8.32-14.48-13.39-32.42-15.06-14.18-1.33-27.21,1.38-39.81,4-27,5.61-50.35,10.45-71.14-29.1-23.15-44-17.88-99.8-12.79-153.74,3.27-34.63,6.35-67.35,2.47-97.1-12.34-94.46-65.13-156.67-144.84-170.67-70-12.3-139.53,16.22-190.7,78.25C504.47,256,486,353.83,517.56,428c25.38,59.7,67.19,43.38,111.47,26.1C651,445.52,673.72,436.66,695.4,436.66Z" transform="translate(0 -1.55)"/></g></g></svg>