<svg xmlns="http://www.w3.org/2000/svg" xmlns:xlink="http://www.w3.org/1999/xlink" viewBox="0 0 1651.1 1009.15"><defs><style>.cls-1{fill:none;}.cls-2{clip-path:url(#clip-path);}.cls-3{fill:#d3fbe8;}.cls-4{fill:#72ecba;}.cls-5{fill:#00bec9;}.cls-6{fill:#a2e2e7;}.cls-7{fill:#f2fcfa;}</style><clipPath id="clip-path" transform="translate(121.57 -2.39)"><rect class="cls-1" width="1439.69" height="775.85"/></clipPath></defs><title>firuletes</title><g id="Capa_2" data-name="Capa 2"><g id="Objects"><g class="cls-2"><path class="cls-3" d="M287,306.93c148.11,61.24,125.28,247,207,346.33,87.2,106,256.94,160.59,496.7,86.77C1442.54,600.89,1631,163.82,1368.55,24.09c-163.86-87.25-298.69,112.1-468.49,181.53C660.82,303.44,710.57,87.49,513.47,77.53,264.15,64.94-12,188-101.17,333.66c-45.35,74.12-14.35,93.33,85.51,57.46C103.33,348.37,167.94,257.71,287,306.93Z" transform="translate(121.57 -2.39)"/><path class="cls-4" d="M1305.36,325.06c-130.18,29.15-298.31-50.89-433.32-60.19C727.92,255,572.49,288.79,549.83,408.55c-27.08,143.15,116.24,226,433,286.48,166.43,31.8,160.54-36.92,175.15-124.39,20.57-123.24,155.55-9.47,259.8-76,131.89-84.1,145.91-230.29,48.24-318.48-49.69-44.87-83.1-41.24-96.47,8.28C1353.59,243.49,1410,301.63,1305.36,325.06Z" transform="translate(121.57 -2.39)"/><polygon class="cls-5" points="1388.66 223.25 1378.74 223.25 1378.74 213.33 1368.02 213.33 1368.02 223.25 1358.1 223.25 1358.1 233.98 1368.02 233.98 1368.02 243.9 1378.74 243.9 1378.74 233.98 1388.66 233.98 1388.66 223.25"/><polygon class="cls-5" points="768.21 436.71 758.29 436.71 758.29 426.79 747.57 426.79 747.57 436.71 737.65 436.71 737.65 447.44 747.57 447.44 747.57 457.36 758.29 457.36 758.29 447.44 768.21 447.44 768.21 436.71"/><polygon class="cls-6" points="845.91 157 831.97 157 831.97 143.06 816.89 143.06 816.89 157 802.95 157 802.95 172.08 816.89 172.08 816.89 186.03 831.97 186.03 831.97 172.08 845.91 172.08 845.91 157"/><polygon class="cls-5" points="963.28 498.49 934.99 498.49 934.99 470.2 904.41 470.2 904.41 498.49 876.13 498.49 876.13 529.07 904.41 529.07 904.41 557.35 934.99 557.35 934.99 529.07 963.28 529.07 963.28 498.49"/><path class="cls-7" d="M1310.33,1011.54c-69.81,0-140.71-27.37-197.33-76.74-41.06-35.82-50-89.65-57.92-137.14-10.79-64.87-20.11-120.89-101-122.28-33.78-.57-69.55,13.36-104.07,26.83-68.94,26.91-134.06,52.32-173.71-41-24.8-58.33-30.41-125.84-16.24-195.23,13.34-65.29,44.33-129.92,87.28-182,37-44.84,82.14-79.76,130.57-101,53.19-23.32,108.72-30.13,165-20.24,65,11.42,118,42.87,157.62,93.47,35.08,44.85,58.25,104,67,171.07,6,46.07,1.24,96.64-3.81,150.17-7.85,83.11-16,169,19.61,236.7,31.67,60.24,67.26,52.85,108.47,44.29,19.56-4.06,39.77-8.25,61.84-6.2,28.2,2.63,45.39,10.7,51.09,24,6.23,14.52-1.41,34.85-22.71,60.43-35.75,42.92-89.5,69.21-151.35,74Q1320.57,1011.55,1310.33,1011.54ZM952.06,674.15l2.07,0c37.43.64,62.16,12.75,77.82,38.12,14,22.59,19,53,24.36,85.18,8.25,49.6,16.79,100.89,57.52,136.42,61.89,54,140.9,81.57,216.81,75.65,61.51-4.78,114.95-30.91,150.48-73.57,21-25.21,28.57-45.13,22.53-59.2-5.5-12.84-22.35-20.67-50.06-23.25-21.88-2-42,2.14-61.46,6.18-41.71,8.66-77.73,16.14-109.84-44.93-35.73-68-27.6-154.08-19.74-237.36,5-53.47,9.82-104,3.81-149.91-19-145.83-100.55-241.87-223.61-263.49-108.11-19-215.41,25-294.41,120.8-91.06,110.37-119.54,261.47-70.86,376,39.18,92.17,103.74,67,172.1,40.29C883.51,687.84,918.58,674.15,952.06,674.15Z" transform="translate(121.57 -2.39)"/></g></g></g></svg>