<svg xmlns="http://www.w3.org/2000/svg" viewBox="0 0 1280.15 581.4"><defs><style>.cls-1{fill:#3f3d56;}.cls-2{fill:#e6e8ec;}.cls-3{fill:#72e9b7;}.cls-4,.cls-5{fill:#fff;}.cls-4{opacity:0.3;isolation:isolate;}.cls-6{fill:#ffb8b8;}.cls-7{fill:#2f2e41;}.cls-8{fill:#f2f2f2;}.cls-9{fill:#2c8278;}.cls-10{fill:#2decb2;}.cls-11{fill:#00c2cb;}.cls-12{fill:#91e4e8;}</style></defs><title>final4</title><g id="Capa_2" data-name="Capa 2"><g id="f7bb3db6-0aca-42e3-bcc4-5e9b3a55e19d"><path class="cls-1" d="M643,581.4q-36.45-5.7-70.1-9.7l8.6-17.3c-3-1-16,9-16,9l11-50c-15,2-22,53-22,53l-17-17,8.4,19.2c-68.7-7.2-127.9-9.5-177.8-9l7.4-14.8c-3-1-16,9-16,9l11-50c-15,2-22,53-22,53l-17-17,8.9,20.4a994.29,994.29,0,0,0-102,8.2c7.4-23,33.2-45.1,33.2-45.1-19.8,6.2-30.1,16.2-35.5,25.5a400.62,400.62,0,0,1,21.5-139s-40,90-34,150l.8,10.7c-34.8,5.4-52.3,10.8-52.3,10.8H643Z"/><rect class="cls-1" x="21.7" y="577.77" width="1258.45" height="2.93"/><path class="cls-1" d="M553.5,133.8v65.7a2.26,2.26,0,0,1-2.3,2.3h-1.6V544a35.72,35.72,0,0,1-35.7,35.7H300.1A35.72,35.72,0,0,1,264.4,544h0V213.7h-1.2a1.58,1.58,0,0,1-1.6-1.6V174.7a1.58,1.58,0,0,1,1.6-1.6h1.2V159h-1.2a1.75,1.75,0,0,1-1.7-1.7V120.4a1.75,1.75,0,0,1,1.7-1.7h1.2V99.6h-1.2a1.54,1.54,0,0,1-1.5-1.5h0V77.9a1.54,1.54,0,0,1,1.5-1.5h1.2V35.7A35.72,35.72,0,0,1,300.1,0H513.9a35.72,35.72,0,0,1,35.7,35.7v95.8h1.6A2.33,2.33,0,0,1,553.5,133.8Z"/><path class="cls-2" d="M382.5,18.3h34.7a2.48,2.48,0,0,1,2.5,2.5v3a2.48,2.48,0,0,1-2.5,2.5H382.5a2.48,2.48,0,0,1-2.5-2.5v-3A2.48,2.48,0,0,1,382.5,18.3Z"/><circle class="cls-2" cx="430.4" cy="22.4" r="4.6"/><path class="cls-3" d="M532.5,42.8V546.9a22.7,22.7,0,0,1-22.7,22.6H305.2a24.19,24.19,0,0,1-10.5-2.5,15.92,15.92,0,0,1-2.2-1.3,22.84,22.84,0,0,1-10-18.8V42.8a22.58,22.58,0,0,1,22.6-22.6h30.6V24a18.56,18.56,0,0,0,18.6,18.6H458.4A18.71,18.71,0,0,0,477.1,24V20.1h32.6a22.7,22.7,0,0,1,22.8,22.7Z"/><path class="cls-4" d="M532.5,474.7v72.2a22.7,22.7,0,0,1-22.7,22.6H305.2a24.19,24.19,0,0,1-10.5-2.5,15.92,15.92,0,0,1-2.2-1.3,22.84,22.84,0,0,1-10-18.8V474.8A186.87,186.87,0,0,1,532.5,474.7Z"/><path class="cls-4" d="M520.3,566.9a22.36,22.36,0,0,1-10.5,2.6H305.2a24.19,24.19,0,0,1-10.5-2.5,122.2,122.2,0,0,1,225.6-.1Z"/><path class="cls-4" d="M475.8,568.1a14,14,0,0,1-6.3,1.6H345.6a13.61,13.61,0,0,1-6.3-1.5,73.94,73.94,0,0,1,136.5-.1Z"/><path class="cls-5" d="M459.5,215.3c-20.5,0-43.1-3.9-60.6-17.1-24.5-18.4-54.7-17.4-75.7-13.3a164.58,164.58,0,0,0-40.3,13.4l-.9-1.8a165.92,165.92,0,0,1,40.8-13.6c21.4-4.1,52.2-5.1,77.3,13.7,47,35.2,131.2,3.6,132,3.3l.7,1.9a247.36,247.36,0,0,1-48.7,11.9A222.51,222.51,0,0,1,459.5,215.3Z"/><path class="cls-4" d="M282.5,197.4s69-16.7,117,6.2,133-.2,133-.2"/><path class="cls-4" d="M347.6,223.3a129.58,129.58,0,0,1-24.8-2.5A168.76,168.76,0,0,1,282,207.2l.9-1.8a163.19,163.19,0,0,0,40.3,13.4c21,4.1,51.2,5,75.7-13.3,25.1-18.8,60.2-18.7,85.2-15.4A240.52,240.52,0,0,1,532.8,202l-.7,1.9c-.8-.3-85-32-132,3.3C383.6,219.5,364.7,223.3,347.6,223.3Z"/><path class="cls-4" d="M348,215.3c-34.6,0-65.4-12.4-65.9-12.6l.8-1.8c.7.3,69.1,27.9,116.1.1,47.8-28.3,132.9-3,133.8-2.8l-.6,1.9c-.8-.3-85.1-25.3-132.2,2.6C383.9,212.1,365.5,215.3,348,215.3Z"/><path class="cls-4" d="M282.5,200.2s69,22.9,117,0,133-2.2,133-2.2"/><path class="cls-6" d="M550.3,261.4v29.2s2.3,32.7,15.2,49c0,0,21,29.7,23.9,23.3l-3.6-21.1-12.2-11.5-6.4-36.1-1.7-32.7H550.3Z"/><polygon class="cls-6" points="679.1 524.9 679.1 546.5 661.6 552.9 661.6 527.9 679.1 524.9"/><polygon class="cls-6" points="643.6 522.6 655.2 548.8 638.9 555.8 635.4 530.2 643.6 522.6"/><path class="cls-7" d="M672.7,321.5S696,532,687.3,532.6s-25.7,11.7-25.7,4.1-13.4-106.1-13.4-106.1l-12.8-50.7v70l13.4,79.3s-12.8,16.9-22.2,7l-19.8-77.5s-26.2-117.8-25.1-127.1C581.8,331.4,641.8,280.1,672.7,321.5Z"/><path class="cls-7" d="M668,547.7s4.7-9.9,15.2-3.5l8.7,10.5s22.5,18.7,6.5,22.7c-16.5,4.1-26.4-.3-26.4-.3a12.87,12.87,0,0,0-5.2-1.7c-2.3,0-7.6-4.1-7.6-5.2s1.7-21.8,1.7-21.8a3.64,3.64,0,0,1,4.1.6C666.9,550.6,668,547.7,668,547.7Z"/><path class="cls-7" d="M633.6,544.2s11.1-8.7,16.3,1.2c0,0,3.3,1.2,3.7,0s3.3-1.7,3.3,4.7,3.2,22.4.3,23-5.8,2.3-5.2,4.7-3.2,2.7-16.6,2.1-14-5.8-14-5.8,0-7.6,3.5-11.7S633.6,544.2,633.6,544.2Z"/><path class="cls-6" d="M612.1,162.3s-2.9,21.6,15.7,29.2-41.4,32.7-47.2,18.1,1.2-19.2,1.2-19.2,5.8-5.8.6-21.6Z"/><circle class="cls-6" cx="593.4" cy="151.8" r="25.7"/><path class="cls-8" d="M623.2,198.4s-17.5,9.3-34.4,2.3S572.5,224,572.5,224l8.7,22.7,60.6-5.8-4.1-35Z"/><path class="cls-1" d="M614.5,178.5A21.17,21.17,0,0,1,629,189.7l28,8.7,7,9.9L655.8,280S671,294.6,671,302.7s18.7,36.1,9.3,32.7-26.2-15.7-26.2-15.7-42.6,1.7-56,13.4-18.7,8.2-18.7,8.2-14-60.6-14.6-70S547.9,206,547.9,206l29.2-16.3,7.4-8.4,20.6,32.9,18.7-22.7C623.7,191.4,614.5,184.2,614.5,178.5Z"/><path class="cls-6" d="M672.7,253.2l3.5,18.7s15.7,58.3,13.4,78.1c0,0,1.7,44.3-8.2,39.1s-4.7-37.3-4.7-37.3l-14-57.7-7.6-33.8Z"/><path class="cls-1" d="M658.1,204.8l5.8,3.5s22.2,46.1,16.9,49.6-28,11.1-28,11.1Z"/><polygon class="cls-1" points="561.9 206 548.2 205.7 545 211.3 549.1 267.8 570.1 272.5 561.9 206"/><path class="cls-7" d="M614.3,130.1l4.6-1.7s-9.7-9.7-23.1-8.8l3.8-3.8s-9.2-3.4-17.7,5.5c-4.4,4.6-9.5,10.1-12.7,16.2h-5l2.1,4.1-7.2,4.1,7.4-.7a20.43,20.43,0,0,0,.7,10.7l1.7,4.6s6.7-13.5,6.7-15.1v4.2s4.6-3.8,4.6-6.3l2.5,2.9,1.3-4.6,15.6,4.6-2.5-3.8,9.7,1.3-3.8-4.6s10.9,5.5,11.4,10.1,3.3,10.7,3.3,10.7l3.5-4.1C621.1,155.6,626.5,136.4,614.3,130.1Z"/><ellipse class="cls-6" cx="615" cy="152.1" rx="2" ry="5.2"/><path class="cls-1" d="M41.6,547c12.4,23,38.8,32.9,38.8,32.9s6.2-27.5-6.2-50.5-38.8-32.9-38.8-32.9S29.2,524,41.6,547Z"/><path class="cls-3" d="M50.2,539.4c22.4,13.5,31.1,40.3,31.1,40.3s-27.7,4.9-50.2-8.6S0,530.9,0,530.9,27.7,525.9,50.2,539.4Z"/><path class="cls-4" d="M282.5,197.4s69-36,117,0,133,3.4,133,3.4"/><circle class="cls-5" cx="407.8" cy="552.7" r="11"/><path class="cls-5" d="M446.8,278.2H366.1a13.61,13.61,0,0,0-13.6,13.6v31.4a13.61,13.61,0,0,0,13.6,13.6h52s12.8,12,15.5,13,3.4-2.2,3.4-2.2V336.8h9.8a13.61,13.61,0,0,0,13.6-13.6V291.8A13.61,13.61,0,0,0,446.8,278.2Zm-63.5,28.7a7.2,7.2,0,1,1,7.2-7.2A7.17,7.17,0,0,1,383.3,306.9ZM405.8,328a13.19,13.19,0,0,1-13.2-13.2c0-1,26.4-.6,26.4,0A13.32,13.32,0,0,1,405.8,328Zm23.7-21.1a7.2,7.2,0,1,1,7.2-7.2A7.17,7.17,0,0,1,429.5,306.9Z"/><circle class="cls-5" cx="367.5" cy="254" r="7.2"/><path class="cls-5" d="M371,273.7h-6.8V262.8a5.86,5.86,0,0,0,6.8,0Z"/><path class="cls-9" d="M1211.16,142.31h-80.93A13.71,13.71,0,0,0,1116.55,156v31.46a13.7,13.7,0,0,0,13.68,13.69h52.16s12.82,12.07,15.62,13,3.34-2.16,3.34-2.16V201.15h9.81a13.7,13.7,0,0,0,13.68-13.69V156A13.71,13.71,0,0,0,1211.16,142.31Zm-63.69,28.77a7.22,7.22,0,1,1,7.22-7.22A7.22,7.22,0,0,1,1147.47,171.08ZM1170,192.2A13.24,13.24,0,0,1,1156.74,179c0-1.08,26.51-.65,26.51,0A13.24,13.24,0,0,1,1170,192.2Zm23.82-21.12a7.22,7.22,0,1,1,7.22-7.22A7.22,7.22,0,0,1,1193.81,171.08Z"/><circle class="cls-9" cx="1131.63" cy="118.18" r="7.22"/><path class="cls-9" d="M1135.08,137.79h-6.9v-11c2.38,1.4,4.21,1.51,6.9,0Z"/><path class="cls-10" d="M724.64,200.07a7,7,0,0,1-1.94-5.17v-65a6.71,6.71,0,0,1,1.83-5,6.92,6.92,0,0,1,5.07-1.72h38.9q6.78,0,6.78,5.82c0,3.77-2.26,5.71-6.78,5.71H736.82v21.34h29.52q6.79,0,6.79,5.82c0,3.77-2.26,5.71-6.79,5.71H736.82v27.47a7,7,0,0,1-1.94,5.18,6.83,6.83,0,0,1-5.07,2A8.81,8.81,0,0,1,724.64,200.07Z"/><path class="cls-10" d="M822.91,151.36c3.67,3.78,5.5,9.38,5.5,17v27.05a6.27,6.27,0,0,1-1.73,4.74,6.52,6.52,0,0,1-4.84,1.72,6.65,6.65,0,0,1-4.75-1.72,6.29,6.29,0,0,1-1.83-4.64v-2.47a14.57,14.57,0,0,1-5.92,6.79,18,18,0,0,1-9.38,2.47,21.59,21.59,0,0,1-9.91-2.26,18.59,18.59,0,0,1-7-6.14,15.33,15.33,0,0,1-2.58-8.62c0-4,1-7.11,3-9.48s5.39-4,9.92-5,10.88-1.51,19-1.51h2.8v-2.59c0-3.66-.75-6.25-2.37-8s-4.09-2.48-7.54-2.48a23.93,23.93,0,0,0-6.57,1c-2.27.65-4.85,1.51-7.87,2.7a10.84,10.84,0,0,1-4.2,1.4,4.09,4.09,0,0,1-3.23-1.4,5.51,5.51,0,0,1-1.3-3.78,5.27,5.27,0,0,1,1-3.23,8.55,8.55,0,0,1,3.13-2.58,38.55,38.55,0,0,1,9.27-3.35A44.76,44.76,0,0,1,806,145.87C813.65,145.76,819.25,147.7,822.91,151.36Zm-11.2,37.18a13.29,13.29,0,0,0,3.44-9.59v-2.37h-2a78.22,78.22,0,0,0-11.53.65c-2.7.43-4.74,1.18-5.93,2.37a5.77,5.77,0,0,0-1.72,4.52,7.67,7.67,0,0,0,2.47,5.82,8.66,8.66,0,0,0,6.15,2.26A11.35,11.35,0,0,0,811.71,188.54Z"/><path class="cls-10" d="M877.33,147.27a5.44,5.44,0,0,1,1.62,4.31c0,2-.44,3.45-1.4,4.42s-2.7,1.61-5.18,1.94l-3.34.32c-4.42.43-7.54,1.94-9.59,4.42a14.48,14.48,0,0,0-3,9.48v23.28a6,6,0,0,1-2,4.95,7.14,7.14,0,0,1-5,1.73,7,7,0,0,1-5-1.73,6.33,6.33,0,0,1-1.94-4.95V152.55a5.87,5.87,0,0,1,1.94-4.74,7.32,7.32,0,0,1,4.85-1.62,6.58,6.58,0,0,1,4.64,1.62,5.89,5.89,0,0,1,1.72,4.63v4.42a16,16,0,0,1,6.25-7.54,19.66,19.66,0,0,1,9.27-3l1.51-.11A5.34,5.34,0,0,1,877.33,147.27Z"/><path class="cls-10" d="M963.1,151c3.13,3.56,4.74,9.16,4.74,17v27.26a6.33,6.33,0,0,1-1.94,5,7.23,7.23,0,0,1-5.06,1.72,7,7,0,0,1-5-1.72,6.37,6.37,0,0,1-1.94-5V168.07c0-4.1-.75-7-2.15-8.73s-3.66-2.59-6.57-2.59a11,11,0,0,0-8.62,3.67c-2.16,2.47-3.24,5.82-3.24,10.13v24.78a6.33,6.33,0,0,1-1.94,5,8,8,0,0,1-9.91,0,6.43,6.43,0,0,1-2-5V168.07c0-4.1-.75-7-2.15-8.73s-3.67-2.59-6.58-2.59a11.08,11.08,0,0,0-8.62,3.67c-2.15,2.47-3.12,5.82-3.12,10.13v24.78a6.08,6.08,0,0,1-2,5,7.16,7.16,0,0,1-5,1.72,7,7,0,0,1-5-1.72,6.33,6.33,0,0,1-1.94-5V152.44a5.61,5.61,0,0,1,2-4.74,7.58,7.58,0,0,1,5-1.62,7,7,0,0,1,4.74,1.62,5.92,5.92,0,0,1,1.84,4.63V155a18.63,18.63,0,0,1,6.78-6.79,20.65,20.65,0,0,1,9.81-2.37c8.08,0,13.58,3.45,16.27,10.24a17.77,17.77,0,0,1,7.22-7.44,21.43,21.43,0,0,1,10.78-2.8C955.34,145.76,959.87,147.59,963.1,151Z"/><path class="cls-10" d="M1022.15,151.36c3.67,3.78,5.5,9.38,5.5,17v27.05a6.27,6.27,0,0,1-1.73,4.74,6.52,6.52,0,0,1-4.84,1.72,6.65,6.65,0,0,1-4.75-1.72,6.29,6.29,0,0,1-1.83-4.64v-2.47a14.57,14.57,0,0,1-5.92,6.79,18,18,0,0,1-9.38,2.47,21.59,21.59,0,0,1-9.91-2.26,18.59,18.59,0,0,1-7-6.14,15.33,15.33,0,0,1-2.58-8.62c0-4,1-7.11,3-9.48s5.39-4,9.92-5,10.88-1.51,19-1.51h2.8v-2.59c0-3.66-.75-6.25-2.37-8s-4.09-2.48-7.54-2.48a23.93,23.93,0,0,0-6.57,1c-2.26.65-4.85,1.51-7.87,2.7a10.84,10.84,0,0,1-4.2,1.4,4.09,4.09,0,0,1-3.23-1.4,5.51,5.51,0,0,1-1.3-3.78,5.27,5.27,0,0,1,1-3.23,8.55,8.55,0,0,1,3.13-2.58,38.55,38.55,0,0,1,9.27-3.35,44.76,44.76,0,0,1,10.56-1.18C1012.89,145.76,1018.49,147.7,1022.15,151.36ZM1011,188.54a13.29,13.29,0,0,0,3.44-9.59v-2.37h-2a78.22,78.22,0,0,0-11.53.65c-2.7.43-4.74,1.18-5.93,2.37a5.77,5.77,0,0,0-1.72,4.52,7.64,7.64,0,0,0,2.48,5.82,8.62,8.62,0,0,0,6.14,2.26A11.35,11.35,0,0,0,1011,188.54Z"/><path class="cls-10" d="M1101.57,167.85a19.9,19.9,0,0,1,3.66,12.18c0,6.68-2.37,11.85-7.11,15.62s-11.31,5.71-19.72,5.71h-28.66a6.92,6.92,0,0,1-5.07-1.72,6.7,6.7,0,0,1-1.83-5V130a6.7,6.7,0,0,1,1.83-5,6.92,6.92,0,0,1,5.07-1.72h27.48c8.19,0,14.54,1.83,19.18,5.39s6.89,8.62,6.89,15a18.18,18.18,0,0,1-3.23,10.78,18.52,18.52,0,0,1-9,6.68A17.56,17.56,0,0,1,1101.57,167.85ZM1057,156.11h18.1c9.81,0,14.76-3.67,14.76-11,0-3.67-1.18-6.47-3.66-8.19s-6.14-2.7-11.1-2.7H1057v21.88Zm31.25,31.46c2.37-1.83,3.55-4.74,3.55-8.62s-1.18-6.79-3.55-8.73-6.14-2.91-11.21-2.91h-19.93v22.95H1077C1082.07,190.26,1085.84,189.4,1088.21,187.57Z"/><path class="cls-10" d="M1271.5,196.73a4.75,4.75,0,0,1-2.16,4.09c-1.4,1-3.44,1.3-6.14,1.19l-3-.22c-12.4-.86-18.65-7.54-18.65-19.93V157.72h-5.49a7.23,7.23,0,0,1-4.64-1.29,5.48,5.48,0,0,1,0-7.76,7.23,7.23,0,0,1,4.64-1.29h5.49V137.14a6,6,0,0,1,1.94-4.74,7,7,0,0,1,5.07-1.72,6.74,6.74,0,0,1,5,1.72,6.15,6.15,0,0,1,1.94,4.74v10.24h9.38a7.18,7.18,0,0,1,4.63,1.29,5.46,5.46,0,0,1,0,7.76,7.18,7.18,0,0,1-4.63,1.29h-9.38v25c0,5.5,2.48,8.41,7.55,8.73l3,.22C1269.67,192,1271.5,193.61,1271.5,196.73Z"/><polygon class="cls-11" points="1194.57 476.08 1184.65 476.08 1184.65 466.16 1173.93 466.16 1173.93 476.08 1164.01 476.08 1164.01 486.8 1173.93 486.8 1173.93 496.72 1184.65 496.72 1184.65 486.8 1194.57 486.8 1194.57 476.08"/><polygon class="cls-11" points="734.13 329.54 724.21 329.54 724.21 319.62 713.48 319.62 713.48 329.54 703.56 329.54 703.56 340.26 713.48 340.26 713.48 350.18 724.21 350.18 724.21 340.26 734.13 340.26 734.13 329.54"/><polygon class="cls-12" points="171.83 309.83 157.88 309.83 157.88 295.88 142.81 295.88 142.81 309.83 128.86 309.83 128.86 324.91 142.81 324.91 142.81 338.85 157.88 338.85 157.88 324.91 171.83 324.91 171.83 309.83"/><polygon class="cls-11" points="929.19 391.31 900.9 391.31 900.9 363.03 870.32 363.03 870.32 391.31 842.04 391.31 842.04 421.89 870.32 421.89 870.32 450.18 900.9 450.18 900.9 421.89 929.19 421.89 929.19 391.31"/></g></g></svg>