<svg xmlns="http://www.w3.org/2000/svg" viewBox="0 0 1272.43 581.35"><defs><style>.cls-1{fill:#3f3d56;}.cls-2{fill:#e6e8ec;}.cls-3{fill:#72e9b7;}.cls-4,.cls-5{fill:#fff;}.cls-4{opacity:0.3;isolation:isolate;}.cls-6{fill:#ffb8b8;}.cls-7{fill:#2f2e41;}.cls-8{fill:#f2f2f2;}.cls-9{fill:#2c8278;}.cls-10{fill:#2decb2;}</style></defs><title>final 2</title><g id="Capa_2" data-name="Capa 2"><g id="f7bb3db6-0aca-42e3-bcc4-5e9b3a55e19d"><path class="cls-1" d="M643,581.35q-36.48-5.72-70.14-9.71l8.64-17.29c-3-1-16,9-16,9l11-50c-15,2-22,53-22,53l-17-17,8.37,19.25c-68.68-7.22-127.95-9.47-177.77-9l7.4-14.8c-3-1-16,9-16,9l11-50c-15,2-22,53-22,53l-17-17,8.86,20.39a998.2,998.2,0,0,0-102,8.21c7.38-23,33.16-45.1,33.16-45.1-19.82,6.17-30.13,16.21-35.47,25.53a401.59,401.59,0,0,1,21.47-139s-40,90-34,150l.76,10.66c-34.8,5.43-52.26,10.84-52.26,10.84Z"/><path class="cls-1" d="M734.67,457.49a12,12,0,1,1,12-12A12,12,0,0,1,734.67,457.49Zm0-22a10,10,0,1,0,10,10A10,10,0,0,0,734.67,435.49Z"/><path class="cls-1" d="M830.5,579.78H810.76V560H830.5Zm-18.22-1.52H829V561.55h-16.7Z"/><path class="cls-1" d="M162.14,580.86l-13.46-14.44L163.11,553l13.47,14.44Zm-11.31-14.37,11.39,12.22,12.21-11.39L163,555.1Z"/><rect class="cls-1" x="21.67" y="578.66" width="857.83" height="2"/><path class="cls-1" d="M553.47,133.76v65.68a2.29,2.29,0,0,1-2.29,2.29h-1.62V543.88a35.71,35.71,0,0,1-35.7,35.7H300.07a35.68,35.68,0,0,1-35.69-35.7h0V213.73H263.2a1.61,1.61,0,0,1-1.62-1.61V174.74a1.61,1.61,0,0,1,1.61-1.62h1.19V159h-1.2a1.68,1.68,0,0,1-1.68-1.7V120.47a1.69,1.69,0,0,1,1.68-1.69h1.2V99.56h-1.21a1.5,1.5,0,0,1-1.5-1.5h0V77.94a1.49,1.49,0,0,1,1.5-1.51h1.21V35.69A35.68,35.68,0,0,1,300.07,0H513.85a35.71,35.71,0,0,1,35.71,35.69v95.78h1.62A2.29,2.29,0,0,1,553.47,133.76Z"/><rect class="cls-2" x="379.98" y="18.31" width="39.82" height="8.09" rx="2.54"/><circle class="cls-2" cx="430.41" cy="22.35" r="4.59"/><path class="cls-3" d="M532.46,42.75V546.84a22.65,22.65,0,0,1-22.65,22.64H305.16a22.54,22.54,0,0,1-10.46-2.55,21.17,21.17,0,0,1-2.2-1.3,22.66,22.66,0,0,1-10-18.79V42.75A22.65,22.65,0,0,1,305.16,20.1h30.63V24a18.65,18.65,0,0,0,18.65,18.65H458.52A18.65,18.65,0,0,0,477.17,24V20.1h32.64a22.64,22.64,0,0,1,22.65,22.64Z"/><path class="cls-4" d="M532.46,474.68v72.16a22.65,22.65,0,0,1-22.65,22.64H305.16a22.54,22.54,0,0,1-10.46-2.55,21.17,21.17,0,0,1-2.2-1.3,22.66,22.66,0,0,1-10-18.79V474.71A187,187,0,0,1,532.46,474.68Z"/><path class="cls-4" d="M520.29,566.91a22.37,22.37,0,0,1-10.48,2.57H305.16a22.54,22.54,0,0,1-10.46-2.55,122.16,122.16,0,0,1,225.59,0Z"/><path class="cls-4" d="M475.75,568.12a13.61,13.61,0,0,1-6.34,1.56H345.57a13.68,13.68,0,0,1-6.33-1.55,73.93,73.93,0,0,1,136.51,0Z"/><path class="cls-5" d="M459.55,215.25c-20.53,0-43.06-3.91-60.65-17.1-24.49-18.36-54.66-17.38-75.65-13.33A164.91,164.91,0,0,0,283,198.24l-.92-1.78a167,167,0,0,1,40.76-13.59c21.41-4.14,52.2-5.14,77.29,13.68,47,35.25,131.16,3.59,132,3.27l.72,1.87a242.85,242.85,0,0,1-48.71,11.85A186.89,186.89,0,0,1,459.55,215.25Z"/><path class="cls-4" d="M282.5,197.35s69-16.71,117,6.17,133-.17,133-.17"/><path class="cls-4" d="M347.64,223.31a131.9,131.9,0,0,1-24.83-2.48,166.59,166.59,0,0,1-40.76-13.59l.92-1.78a164.91,164.91,0,0,0,40.28,13.42c21,4.06,51.16,5,75.65-13.33,25.07-18.8,60.18-18.75,85.21-15.39A242.2,242.2,0,0,1,532.82,202l-.72,1.86c-.84-.32-85-32-132,3.27C383.65,219.49,364.74,223.31,347.64,223.31Z"/><path class="cls-4" d="M348,215.26c-34.63,0-65.39-12.43-65.85-12.62l.76-1.85c.69.29,69.09,27.9,116.1.07,47.83-28.32,132.91-3,133.76-2.78l-.58,1.91c-.84-.26-85.09-25.28-132.16,2.59C384,212.09,365.47,215.26,348,215.26Z"/><path class="cls-4" d="M282.51,200.18s69,22.88,117,0,133-2.16,133-2.16"/><path class="cls-6" d="M550.27,261.4v29.15s2.33,32.65,15.16,49c0,0,21,29.74,23.9,23.32l-3.59-21.11L573.59,330.2l-6.41-36.15-1.75-32.65Z"/><polygon class="cls-6" points="679.12 524.94 679.12 546.51 661.63 552.93 661.63 527.86 679.12 524.94"/><polygon class="cls-6" points="643.56 522.61 655.22 548.85 638.89 555.84 635.39 530.19 643.56 522.61"/><path class="cls-7" d="M672.71,321.45S696,531.94,687.29,532.52s-25.66,11.66-25.66,4.08-13.41-106.11-13.41-106.11L635.4,379.76v70L648.81,529s-12.83,16.91-22.16,7l-19.82-77.55s-26.24-117.77-25.08-127.1C581.75,331.37,641.81,280.06,672.71,321.45Z"/><path class="cls-7" d="M668.05,547.68s4.66-9.91,15.16-3.5l8.74,10.5s22.55,18.67,6.55,22.67c-16.49,4.12-26.37-.26-26.37-.26s-2.92-1.75-5.25-1.75-7.58-4.08-7.58-5.25,1.75-21.83,1.75-21.83a3.69,3.69,0,0,1,4.08.59C666.88,550.6,668.05,547.68,668.05,547.68Z"/><path class="cls-7" d="M633.65,544.18s11.07-8.74,16.32,1.17c0,0,3.31,1.16,3.69,0S657,543.6,657,550s3.16,22.41.25,23-5.83,2.33-5.25,4.66-3.16,2.66-16.57,2.08-14-5.83-14-5.83,0-7.58,3.5-11.66S633.65,544.18,633.65,544.18Z"/><path class="cls-6" d="M612.07,162.28s-2.91,21.57,15.75,29.15-41.4,32.65-47.23,18.08,1.16-19.24,1.16-19.24,5.83-5.83.59-21.58Z"/><circle class="cls-6" cx="593.42" cy="151.79" r="25.65"/><path class="cls-8" d="M623.15,198.43s-17.49,9.33-34.4,2.33-16.32,23.32-16.32,23.32l8.74,22.74L641.81,241l-4.08-35Z"/><path class="cls-1" d="M614.46,178.48A21.17,21.17,0,0,1,629,189.68l28,8.75,7,9.91-8.17,71.72S671,294.63,671,302.8s18.66,36.15,9.33,32.65-26.24-15.74-26.24-15.74-42.56,1.74-56,13.41-18.66,8.16-18.66,8.16-14-60.64-14.57-70S547.94,206,547.94,206l29.15-16.33,7.43-8.42,20.56,32.91,18.65-22.74S614.52,184.18,614.46,178.48Z"/><path class="cls-6" d="M672.71,253.24l3.5,18.65S692,330.2,689.62,350c0,0,1.75,44.32-8.16,39.07s-4.67-37.32-4.67-37.32l-14-57.72-7.58-33.82Z"/><path class="cls-1" d="M658.13,204.84l5.84,3.5s22.15,46.06,16.9,49.56-28,11.08-28,11.08Z"/><polygon class="cls-1" points="561.93 206.01 548.23 205.72 545.02 211.26 549.1 267.81 570.09 272.48 561.93 206.01"/><path class="cls-7" d="M614.31,130.09l4.62-1.68s-9.67-9.67-23.12-8.83l3.78-3.78s-9.24-3.37-17.65,5.46c-4.42,4.64-9.54,10.1-12.72,16.24h-5l2.07,4.13-7.23,4.14,7.42-.74a20.92,20.92,0,0,0,.7,10.7l1.69,4.62s6.72-13.45,6.72-15.13v4.21s4.63-3.79,4.63-6.31l2.52,2.94,1.26-4.62,15.55,4.62-2.52-3.78,9.67,1.26L603,138.92s10.93,5.46,11.35,10.09,3.3,10.65,3.3,10.65l3.5-4.08S626.5,136.39,614.31,130.09Z"/><ellipse class="cls-6" cx="614.99" cy="152.08" rx="2.04" ry="5.25"/><path class="cls-1" d="M41.63,547C54.06,570.07,80.44,580,80.44,580s6.23-27.48-6.2-50.52-38.81-33-38.81-33S29.21,524,41.63,547Z"/><path class="cls-3" d="M50.18,539.43c22.43,13.5,31.08,40.32,31.08,40.32s-27.74,4.92-50.18-8.58S0,530.86,0,530.86,27.74,525.93,50.18,539.43Z"/><path class="cls-4" d="M282.51,197.35s69-36,117,0,133,3.4,133,3.4"/><circle class="cls-5" cx="407.75" cy="552.68" r="11"/><path class="cls-5" d="M446.81,278.18h-80.7a13.63,13.63,0,0,0-13.63,13.63v31.4a13.63,13.63,0,0,0,13.63,13.63h52s12.78,12,15.55,13,3.36-2.17,3.36-2.17l0-10.83h9.76a13.63,13.63,0,0,0,13.63-13.63v-31.4A13.63,13.63,0,0,0,446.81,278.18Zm-63.53,28.7a7.22,7.22,0,1,1,7.22-7.21A7.21,7.21,0,0,1,383.28,306.88ZM405.79,328a13.19,13.19,0,0,1-13.21-13.21c0-1,26.42-.64,26.42,0A13.24,13.24,0,0,1,405.79,328Zm23.7-21.07a7.22,7.22,0,1,1,7.22-7.21A7.21,7.21,0,0,1,429.49,306.88Z"/><circle class="cls-5" cx="367.54" cy="254.05" r="7.23"/><path class="cls-5" d="M371,273.67h-6.84V262.72c2.42,1.44,4.22,1.47,6.84,0Z"/><path class="cls-9" d="M1215.52,147.52h-75.11a12.69,12.69,0,0,0-12.69,12.69v29.22a12.69,12.69,0,0,0,12.69,12.68h48.41s11.89,11.21,14.46,12.1,3.14-2,3.14-2V202.11h9.09a12.68,12.68,0,0,0,12.68-12.68V160.21A12.69,12.69,0,0,0,1215.52,147.52Zm-59.13,26.72a6.72,6.72,0,1,1,6.71-6.72A6.72,6.72,0,0,1,1156.39,174.24Zm20.95,19.6a12.27,12.27,0,0,1-12.29-12.29c0-1,24.59-.6,24.58,0A12.32,12.32,0,0,1,1177.34,193.84Zm22.06-19.6a6.72,6.72,0,1,1,6.71-6.72A6.72,6.72,0,0,1,1199.4,174.24Z"/><circle class="cls-9" cx="1141.74" cy="125.06" r="6.73"/><path class="cls-9" d="M1144.93,143.32h-6.37V133.13c2.25,1.34,3.92,1.37,6.37,0Z"/><path class="cls-10" d="M764,201.08a6.62,6.62,0,0,1-1.8-4.83V136a6.16,6.16,0,0,1,1.7-4.63,6.47,6.47,0,0,1,4.68-1.65h36.14c4.18,0,6.28,1.79,6.28,5.36s-2.1,5.25-6.28,5.25H775.3v19.76h27.39c4.18,0,6.28,1.79,6.28,5.36s-2.1,5.25-6.28,5.25H775.3v25.53a6.72,6.72,0,0,1-1.75,4.83,6.17,6.17,0,0,1-4.73,1.86A6.36,6.36,0,0,1,764,201.08Z"/><path class="cls-10" d="M855.24,155.94q5.1,5.2,5.1,15.81v25.11a5.8,5.8,0,0,1-1.65,4.38,6.26,6.26,0,0,1-4.53,1.59,6,6,0,0,1-4.38-1.64,5.76,5.76,0,0,1-1.69-4.33V194.6a13.47,13.47,0,0,1-5.51,6.28,16.54,16.54,0,0,1-8.7,2.26,20.09,20.09,0,0,1-9.16-2.06,16.21,16.21,0,0,1-6.49-5.66,14.27,14.27,0,0,1-2.37-8c0-3.7.95-6.62,2.83-8.75s5-3.67,9.22-4.63a83.91,83.91,0,0,1,17.6-1.44h2.58V170.2c0-3.36-.73-5.81-2.17-7.36s-3.77-2.32-7-2.32a22.33,22.33,0,0,0-6.07.88c-2.06.58-4.5,1.43-7.31,2.52a10.39,10.39,0,0,1-3.91,1.34,3.88,3.88,0,0,1-3-1.34,5.08,5.08,0,0,1-1.18-3.5,5.27,5.27,0,0,1,.87-3,8.25,8.25,0,0,1,2.94-2.42,33.06,33.06,0,0,1,8.59-3.09,44.08,44.08,0,0,1,9.83-1.13Q850.14,150.75,855.24,155.94Zm-10.4,34.49a12.49,12.49,0,0,0,3.25-8.9v-2.17h-1.86a71,71,0,0,0-10.7.62,10.4,10.4,0,0,0-5.46,2.16,5.51,5.51,0,0,0-1.65,4.22,7,7,0,0,0,2.32,5.41,8.15,8.15,0,0,0,5.71,2.11A11,11,0,0,0,844.84,190.43Z"/><path class="cls-10" d="M905.73,152.08a5.06,5.06,0,0,1,1.55,4,5.63,5.63,0,0,1-1.34,4.12c-.89.89-2.51,1.47-4.84,1.75l-3.09.31q-6.07.61-8.9,4.11a13.46,13.46,0,0,0-2.83,8.75v21.62a5.7,5.7,0,0,1-1.86,4.58,6.86,6.86,0,0,1-4.63,1.6,6.67,6.67,0,0,1-4.58-1.6,5.79,5.79,0,0,1-1.8-4.58V156.92a5.5,5.5,0,0,1,1.8-4.42,6.63,6.63,0,0,1,4.48-1.55,6.21,6.21,0,0,1,4.32,1.49,5.48,5.48,0,0,1,1.65,4.28v4.11a15.29,15.29,0,0,1,5.81-7,17.86,17.86,0,0,1,8.6-2.77l1.44-.11A5.57,5.57,0,0,1,905.73,152.08Z"/><path class="cls-10" d="M985.26,155.64q4.37,4.89,4.37,15.8v25.32a5.79,5.79,0,0,1-1.8,4.58,6.82,6.82,0,0,1-4.69,1.6,6.67,6.67,0,0,1-4.58-1.6,5.79,5.79,0,0,1-1.8-4.58V171.44q0-5.67-2-8.08c-1.34-1.62-3.39-2.42-6.13-2.42a10.08,10.08,0,0,0-8,3.45q-3,3.45-3,9.42v22.95a5.8,5.8,0,0,1-1.81,4.58,6.66,6.66,0,0,1-4.58,1.6,6.88,6.88,0,0,1-4.63-1.6,5.72,5.72,0,0,1-1.85-4.58V171.44q0-5.67-2-8.08c-1.34-1.62-3.38-2.42-6.12-2.42a9.91,9.91,0,0,0-8,3.45q-2.94,3.45-2.94,9.42v22.95a5.69,5.69,0,0,1-1.85,4.58,6.88,6.88,0,0,1-4.63,1.6,6.67,6.67,0,0,1-4.58-1.6,5.79,5.79,0,0,1-1.8-4.58V156.92a5.41,5.41,0,0,1,1.85-4.42,7,7,0,0,1,4.63-1.55,6.44,6.44,0,0,1,4.38,1.49,5.4,5.4,0,0,1,1.69,4.28v2.47a16.08,16.08,0,0,1,6.34-6.28,18.7,18.7,0,0,1,9.11-2.16q11.31,0,15.13,9.47a17,17,0,0,1,6.69-6.9,19.46,19.46,0,0,1,10-2.57Q980.87,150.75,985.26,155.64Z"/><path class="cls-10" d="M1040.12,155.94q5.1,5.2,5.1,15.81v25.11a5.8,5.8,0,0,1-1.65,4.38,6.26,6.26,0,0,1-4.53,1.59,6,6,0,0,1-4.37-1.64,5.73,5.73,0,0,1-1.7-4.33V194.6a13.47,13.47,0,0,1-5.51,6.28,16.52,16.52,0,0,1-8.7,2.26,20.09,20.09,0,0,1-9.16-2.06,16.21,16.21,0,0,1-6.49-5.66,14.26,14.26,0,0,1-2.36-8q0-5.55,2.83-8.75t9.21-4.63a83.91,83.91,0,0,1,17.6-1.44H1033V170.2q0-5-2.16-7.36c-1.45-1.54-3.78-2.32-7-2.32a22.35,22.35,0,0,0-6.08.88c-2.06.58-4.49,1.43-7.31,2.52a10.33,10.33,0,0,1-3.91,1.34,3.89,3.89,0,0,1-3-1.34,5.08,5.08,0,0,1-1.18-3.5,5.27,5.27,0,0,1,.87-3,8.25,8.25,0,0,1,2.94-2.42,33.13,33.13,0,0,1,8.6-3.09,44,44,0,0,1,9.83-1.13Q1035,150.75,1040.12,155.94Zm-10.4,34.49a12.45,12.45,0,0,0,3.25-8.9v-2.17h-1.86a71.19,71.19,0,0,0-10.7.62,10.4,10.4,0,0,0-5.46,2.16,5.51,5.51,0,0,0-1.65,4.22,7,7,0,0,0,2.32,5.41,8.16,8.16,0,0,0,5.71,2.11A11,11,0,0,0,1029.72,190.43Z"/><path class="cls-10" d="M1113.83,171.23a18.43,18.43,0,0,1,3.45,11.33q0,9.25-6.64,14.51t-18.28,5.25h-26.55a6.47,6.47,0,0,1-4.69-1.65,6.15,6.15,0,0,1-1.7-4.63V136a6.16,6.16,0,0,1,1.7-4.63,6.51,6.51,0,0,1,4.69-1.65h25.52q11.34,0,17.76,5t6.44,13.95a16.66,16.66,0,0,1-3,10,17.28,17.28,0,0,1-8.39,6.18A17.56,17.56,0,0,1,1113.83,171.23Zm-41.43-10.91h16.77q13.69,0,13.69-10.19,0-5.15-3.39-7.62t-10.3-2.47H1072.4Zm29,29.13q3.3-2.56,3.3-8t-3.35-8.13q-3.34-2.67-10.45-2.68H1072.4V192h18.52Q1098.14,192,1101.42,189.45Z"/><path class="cls-10" d="M1271.48,198a4.17,4.17,0,0,1-2,3.75,9.57,9.57,0,0,1-5.72,1.08l-2.78-.2q-17.3-1.23-17.29-18.53V161.66h-5.15a6.49,6.49,0,0,1-4.27-1.24,5.09,5.09,0,0,1,0-7.2,6.49,6.49,0,0,1,4.27-1.24h5.15v-9.47a5.79,5.79,0,0,1,1.75-4.43,6.66,6.66,0,0,1,4.74-1.64,6.52,6.52,0,0,1,4.63,1.64,5.79,5.79,0,0,1,1.75,4.43V152h8.75a6.49,6.49,0,0,1,4.27,1.24,5.09,5.09,0,0,1,0,7.2,6.49,6.49,0,0,1-4.27,1.24h-8.75V185q0,7.62,7,8.13l2.78.2C1269.77,193.57,1271.48,195.11,1271.48,198Z"/><path d="M765.4,257.66q-2.05-2.09-2.06-6.15V240.14a1.24,1.24,0,0,1,.32-.88,1.15,1.15,0,0,1,.87-.33,1.11,1.11,0,0,1,.84.33,1.24,1.24,0,0,1,.32.88v11.58a6.22,6.22,0,0,0,1.46,4.49,5.74,5.74,0,0,0,4.31,1.51,5.66,5.66,0,0,0,4.29-1.51,6.22,6.22,0,0,0,1.45-4.49V240.14a1.17,1.17,0,0,1,.34-.88,1.29,1.29,0,0,1,1.72,0,1.24,1.24,0,0,1,.32.88v11.37a8.41,8.41,0,0,1-2.07,6.14,8.15,8.15,0,0,1-6,2.1Q767.46,259.75,765.4,257.66Z"/><path d="M797,250.64v7.86a1,1,0,0,1-1.16,1.16,1.21,1.21,0,0,1-.87-.3,1.15,1.15,0,0,1-.32-.86v-7.71a4.38,4.38,0,0,0-.77-2.87,3.05,3.05,0,0,0-2.45-.9,4.11,4.11,0,0,0-3.1,1.19,4.37,4.37,0,0,0-1.16,3.22v7.07a1.06,1.06,0,0,1-1.16,1.16,1.21,1.21,0,0,1-.87-.3,1.15,1.15,0,0,1-.32-.86V246.26A1.1,1.1,0,0,1,786,245.1a1.08,1.08,0,0,1,.82.32,1.12,1.12,0,0,1,.31.81v1.48a4.69,4.69,0,0,1,1.94-2,5.76,5.76,0,0,1,2.84-.68Q797,245.05,797,250.64Z"/><path d="M813.07,250.61v7.89a1.17,1.17,0,0,1-.3.84,1.06,1.06,0,0,1-.83.32,1.12,1.12,0,0,1-.84-.32,1.14,1.14,0,0,1-.32-.84v-1.39A4.11,4.11,0,0,1,809.1,259a5,5,0,0,1-2.61.68,5.7,5.7,0,0,1-2.51-.55,4.54,4.54,0,0,1-1.81-1.54,3.83,3.83,0,0,1-.67-2.17,3.49,3.49,0,0,1,.82-2.48A4.91,4.91,0,0,1,805,251.7a26.53,26.53,0,0,1,5.17-.39h.63v-1a3.77,3.77,0,0,0-.71-2.55,2.91,2.91,0,0,0-2.3-.81,8.54,8.54,0,0,0-4,1.07,2.63,2.63,0,0,1-1.11.49.73.73,0,0,1-.58-.26,1,1,0,0,1-.23-.66,1.06,1.06,0,0,1,.25-.71,2.81,2.81,0,0,1,.8-.63,9.36,9.36,0,0,1,2.3-.91,10.36,10.36,0,0,1,2.57-.33C811.31,245.05,813.07,246.9,813.07,250.61Zm-3.4,6.08a4.22,4.22,0,0,0,1.11-3v-.84h-.52a25.07,25.07,0,0,0-3.88.22,3.69,3.69,0,0,0-1.9.72,1.9,1.9,0,0,0-.57,1.49,2.39,2.39,0,0,0,.83,1.87,3,3,0,0,0,2.07.74A3.79,3.79,0,0,0,809.67,256.69Z"/><path d="M828.46,259.4a7.59,7.59,0,0,1-2.13-.9,2.76,2.76,0,0,1-.74-.65,1.2,1.2,0,0,1-.22-.74.87.87,0,0,1,.22-.62.69.69,0,0,1,.56-.25,2.14,2.14,0,0,1,1,.43,9.32,9.32,0,0,0,1.72.83,6.5,6.5,0,0,0,2.14.31,4.5,4.5,0,0,0,2.43-.56,1.76,1.76,0,0,0,.87-1.59,1.59,1.59,0,0,0-.32-1,2.71,2.71,0,0,0-1.1-.7,15.87,15.87,0,0,0-2.29-.62,8.59,8.59,0,0,1-3.65-1.48,3.12,3.12,0,0,1-1.11-2.52,3.7,3.7,0,0,1,.7-2.21,4.66,4.66,0,0,1,1.93-1.5,6.73,6.73,0,0,1,2.8-.55,8,8,0,0,1,2.19.3,6.54,6.54,0,0,1,1.87.86,1.88,1.88,0,0,1,1,1.45.92.92,0,0,1-.23.63.69.69,0,0,1-.55.26,2.13,2.13,0,0,1-1-.49,9.25,9.25,0,0,0-1.54-.81,4.92,4.92,0,0,0-1.8-.29,3.58,3.58,0,0,0-2.19.61,1.92,1.92,0,0,0-.83,1.62,1.64,1.64,0,0,0,.31,1,2.48,2.48,0,0,0,1,.7,12.12,12.12,0,0,0,2,.59,14.66,14.66,0,0,1,3.06,1,3.14,3.14,0,0,1,2,3.19,3.46,3.46,0,0,1-1.53,2.94,6.73,6.73,0,0,1-4.06,1.12A10,10,0,0,1,828.46,259.4Z"/><path d="M843.19,258.82a6,6,0,0,1-2.35-2.57,9.54,9.54,0,0,1,0-7.74,6,6,0,0,1,2.35-2.57,7.45,7.45,0,0,1,7.06,0,6,6,0,0,1,2.37,2.57,9.54,9.54,0,0,1,0,7.74,5.91,5.91,0,0,1-2.37,2.57,7.37,7.37,0,0,1-7.06,0Zm6.73-2.42a6.29,6.29,0,0,0,1.12-4,6.15,6.15,0,0,0-1.14-4,4.31,4.31,0,0,0-6.38,0,6.21,6.21,0,0,0-1.13,4,6.27,6.27,0,0,0,1.12,4,4.39,4.39,0,0,0,6.41,0Z"/><path d="M858,259.36a1.12,1.12,0,0,1-.33-.86V240.09a1.11,1.11,0,0,1,.33-.86,1.23,1.23,0,0,1,.86-.3,1.17,1.17,0,0,1,.82.3,1.11,1.11,0,0,1,.34.86V258.5a1.13,1.13,0,0,1-.34.86,1.17,1.17,0,0,1-.82.3A1.23,1.23,0,0,1,858,259.36Z"/><path d="M876.66,245.42a1.2,1.2,0,0,1,.3.84v12.27a1.07,1.07,0,0,1-1.16,1.13,1.14,1.14,0,0,1-.83-.3,1.1,1.1,0,0,1-.3-.8v-1.45a4.55,4.55,0,0,1-1.87,1.94,5.45,5.45,0,0,1-2.71.67,4.87,4.87,0,0,1-3.8-1.41,6,6,0,0,1-1.28-4.16v-7.89a1.1,1.1,0,0,1,1.19-1.16,1.14,1.14,0,0,1,.86.32,1.2,1.2,0,0,1,.3.84v7.83a4.17,4.17,0,0,0,.76,2.77,2.94,2.94,0,0,0,2.37.89,3.88,3.88,0,0,0,3-1.21,4.41,4.41,0,0,0,1.13-3.17v-7.11a1.1,1.1,0,0,1,1.19-1.16A1.15,1.15,0,0,1,876.66,245.42Z"/><path d="M884.37,258.82a6,6,0,0,1-2.35-2.55,9.17,9.17,0,0,1,0-7.69,6.36,6.36,0,0,1,2.39-2.61,6.72,6.72,0,0,1,3.54-.92,8.2,8.2,0,0,1,2.19.3,6.15,6.15,0,0,1,1.9.88,2.63,2.63,0,0,1,.74.69,1.37,1.37,0,0,1,.22.74,1,1,0,0,1-.22.66.69.69,0,0,1-.57.26,1.05,1.05,0,0,1-.43-.11,3.1,3.1,0,0,1-.39-.23l-.22-.15a8.59,8.59,0,0,0-1.44-.78,4.11,4.11,0,0,0-1.66-.29,4,4,0,0,0-3.3,1.43,6.16,6.16,0,0,0-1.17,4,5.94,5.94,0,0,0,1.17,3.94,4.09,4.09,0,0,0,3.3,1.4,4.52,4.52,0,0,0,1.69-.29,7.9,7.9,0,0,0,1.44-.79,5.41,5.41,0,0,1,.61-.34,1.12,1.12,0,0,1,.49-.15.7.7,0,0,1,.54.26,1.05,1.05,0,0,1,.21.67,1.16,1.16,0,0,1-.2.68,2.87,2.87,0,0,1-.75.68,7.09,7.09,0,0,1-2,.89,8.27,8.27,0,0,1-2.31.33A6.72,6.72,0,0,1,884.37,258.82Z"/><path d="M896.68,241.65a1.39,1.39,0,0,1-.43-1.07,1.34,1.34,0,0,1,.43-1,1.6,1.6,0,0,1,1.13-.41,1.58,1.58,0,0,1,1.13.41,1.35,1.35,0,0,1,.44,1,1.4,1.4,0,0,1-.44,1.07,1.58,1.58,0,0,1-1.13.41A1.6,1.6,0,0,1,896.68,241.65Zm.28,17.71a1.09,1.09,0,0,1-.34-.86V246.26a1.07,1.07,0,0,1,.34-.85,1.22,1.22,0,0,1,.85-.31,1.17,1.17,0,0,1,.84.31,1.09,1.09,0,0,1,.32.85V258.5a1.08,1.08,0,0,1-.32.87,1.36,1.36,0,0,1-1.69,0Z"/><path d="M906.38,258.82a6,6,0,0,1-2.35-2.57,9.54,9.54,0,0,1,0-7.74,6,6,0,0,1,2.35-2.57,7.45,7.45,0,0,1,7.06,0,6,6,0,0,1,2.37,2.57,9.54,9.54,0,0,1,0,7.74,6,6,0,0,1-2.37,2.57,7.37,7.37,0,0,1-7.06,0Zm6.73-2.42a6.29,6.29,0,0,0,1.11-4,6.15,6.15,0,0,0-1.13-4,4.31,4.31,0,0,0-6.38,0,6.21,6.21,0,0,0-1.13,4,6.27,6.27,0,0,0,1.12,4,4.39,4.39,0,0,0,6.41,0ZM910,243.68a.67.67,0,0,1-.49-.19.56.56,0,0,1-.2-.45.64.64,0,0,1,.17-.43l3.36-4.41a1.53,1.53,0,0,1,1.19-.67,1.14,1.14,0,0,1,.79.31,1,1,0,0,1,.31.77,1.43,1.43,0,0,1-.58,1.1l-4.08,3.8A.82.82,0,0,1,910,243.68Z"/><path d="M933,250.64v7.86a1.06,1.06,0,0,1-1.16,1.16,1.21,1.21,0,0,1-.87-.3,1.12,1.12,0,0,1-.32-.86v-7.71a4.38,4.38,0,0,0-.77-2.87,3.05,3.05,0,0,0-2.45-.9,4.09,4.09,0,0,0-3.1,1.19,4.37,4.37,0,0,0-1.16,3.22v7.07a1.19,1.19,0,0,1-.31.86,1.16,1.16,0,0,1-.85.3,1.21,1.21,0,0,1-.87-.3,1.12,1.12,0,0,1-.32-.86V246.26a1.13,1.13,0,0,1,.32-.84,1.18,1.18,0,0,1,.87-.32,1.09,1.09,0,0,1,.82.32,1.12,1.12,0,0,1,.31.81v1.48a4.69,4.69,0,0,1,1.94-2,5.76,5.76,0,0,1,2.84-.68Q933,245.05,933,250.64Z"/><path d="M956.56,246a6.14,6.14,0,0,1,2.21,2.6,9,9,0,0,1,.78,3.87,8.83,8.83,0,0,1-.78,3.84,5.8,5.8,0,0,1-5.48,3.44,5.54,5.54,0,0,1-2.89-.73,4.65,4.65,0,0,1-1.87-2.05v6.81a1.14,1.14,0,0,1-.3.83,1.36,1.36,0,0,1-1.73,0,1.1,1.1,0,0,1-.32-.81V246.26a1.1,1.1,0,0,1,1.19-1.16,1.15,1.15,0,0,1,.86.32,1.2,1.2,0,0,1,.3.84v1.57a4.68,4.68,0,0,1,1.87-2.06,5.63,5.63,0,0,1,2.89-.72A5.82,5.82,0,0,1,956.56,246ZM956,256.38a6,6,0,0,0,1.13-3.94,6.27,6.27,0,0,0-1.13-4,4.29,4.29,0,0,0-6.36,0,6.17,6.17,0,0,0-1.12,4,6.25,6.25,0,0,0,1.12,4,3.8,3.8,0,0,0,3.17,1.41A3.86,3.86,0,0,0,956,256.38Z"/><path d="M975.24,256.5a1,1,0,0,1,.23.67c0,.48-.34.93-1,1.33a8.93,8.93,0,0,1-4.47,1.22,7,7,0,0,1-5.18-1.94,7.39,7.39,0,0,1-1.89-5.37,8.41,8.41,0,0,1,.84-3.84,6.26,6.26,0,0,1,2.36-2.6,6.49,6.49,0,0,1,3.46-.92,5.63,5.63,0,0,1,4.38,1.79,7,7,0,0,1,1.63,4.88,1.3,1.3,0,0,1-.23.84,1,1,0,0,1-.76.26h-9.34c.18,3.32,1.75,5,4.73,5a5.56,5.56,0,0,0,1.94-.31,12.26,12.26,0,0,0,1.74-.83,2.73,2.73,0,0,1,1-.43A.74.74,0,0,1,975.24,256.5Zm-8.6-8.47a5.38,5.38,0,0,0-1.32,3.28h8.21a5.06,5.06,0,0,0-1.07-3.29,3.6,3.6,0,0,0-2.85-1.15A4,4,0,0,0,966.64,248Z"/><path d="M991.92,250.64v7.86a1.19,1.19,0,0,1-.31.86,1.16,1.16,0,0,1-.85.3,1.21,1.21,0,0,1-.87-.3,1.12,1.12,0,0,1-.32-.86v-7.71a4.38,4.38,0,0,0-.77-2.87,3.05,3.05,0,0,0-2.45-.9,4.13,4.13,0,0,0-3.11,1.19,4.41,4.41,0,0,0-1.16,3.22v7.07a1.18,1.18,0,0,1-.3.86,1.17,1.17,0,0,1-.86.3,1.24,1.24,0,0,1-.87-.3,1.15,1.15,0,0,1-.31-.86V246.26a1.16,1.16,0,0,1,.31-.84,1.21,1.21,0,0,1,.87-.32,1.1,1.1,0,0,1,.83.32,1.17,1.17,0,0,1,.31.81v1.48a4.69,4.69,0,0,1,1.94-2,5.76,5.76,0,0,1,2.84-.68C990.22,245.05,991.92,246.91,991.92,250.64Z"/><path d="M999.12,259.4a7.59,7.59,0,0,1-2.13-.9,2.93,2.93,0,0,1-.74-.65,1.27,1.27,0,0,1-.22-.74.92.92,0,0,1,.22-.62.71.71,0,0,1,.57-.25,2.12,2.12,0,0,1,1,.43,9.39,9.39,0,0,0,1.73.83,6.48,6.48,0,0,0,2.13.31,4.5,4.5,0,0,0,2.43-.56,1.76,1.76,0,0,0,.87-1.59,1.53,1.53,0,0,0-.32-1,2.71,2.71,0,0,0-1.1-.7,15.51,15.51,0,0,0-2.29-.62,8.59,8.59,0,0,1-3.65-1.48,3.11,3.11,0,0,1-1.1-2.52,3.7,3.7,0,0,1,.69-2.21,4.73,4.73,0,0,1,1.93-1.5,6.73,6.73,0,0,1,2.8-.55,8,8,0,0,1,2.19.3,6.42,6.42,0,0,1,1.87.86,1.85,1.85,0,0,1,1,1.45.88.88,0,0,1-.23.63.69.69,0,0,1-.55.26,2.13,2.13,0,0,1-1-.49,8.87,8.87,0,0,0-1.54-.81,4.92,4.92,0,0,0-1.8-.29,3.58,3.58,0,0,0-2.19.61,1.91,1.91,0,0,0-.82,1.62,1.64,1.64,0,0,0,.3,1,2.46,2.46,0,0,0,1,.7,11.69,11.69,0,0,0,2,.59,14.47,14.47,0,0,1,3.06,1,3.16,3.16,0,0,1,2,3.19,3.47,3.47,0,0,1-1.54,2.94,6.73,6.73,0,0,1-4.06,1.12A10,10,0,0,1,999.12,259.4Z"/><path d="M1022.6,250.61v7.89a1.13,1.13,0,0,1-.31.84,1.06,1.06,0,0,1-.82.32,1.08,1.08,0,0,1-1.16-1.16v-1.39a4.18,4.18,0,0,1-1.69,1.93,5,5,0,0,1-2.61.68,5.7,5.7,0,0,1-2.51-.55,4.54,4.54,0,0,1-1.81-1.54,3.82,3.82,0,0,1-.66-2.17,3.53,3.53,0,0,1,.81-2.48,4.91,4.91,0,0,1,2.67-1.28,26.34,26.34,0,0,1,5.16-.39h.64v-1a3.83,3.83,0,0,0-.71-2.55,3,3,0,0,0-2.31-.81,8.54,8.54,0,0,0-4,1.07,2.61,2.61,0,0,1-1.1.49.71.71,0,0,1-.58-.26.92.92,0,0,1-.24-.66,1.12,1.12,0,0,1,.25-.71,2.81,2.81,0,0,1,.8-.63,9.36,9.36,0,0,1,2.3-.91,10.36,10.36,0,0,1,2.57-.33Q1022.6,245.05,1022.6,250.61Zm-3.41,6.08a4.23,4.23,0,0,0,1.12-3v-.84h-.53a25.16,25.16,0,0,0-3.88.22,3.73,3.73,0,0,0-1.9.72,1.9,1.9,0,0,0-.57,1.49,2.39,2.39,0,0,0,.83,1.87,3,3,0,0,0,2.07.74A3.79,3.79,0,0,0,1019.19,256.69Z"/><path d="M1039.79,239.25a1.06,1.06,0,0,1,.32.81V258.5a1.1,1.1,0,0,1-.32.84,1.14,1.14,0,0,1-.87.32,1.09,1.09,0,0,1-.85-.32,1.17,1.17,0,0,1-.31-.84v-1.56a4.6,4.6,0,0,1-1.87,2.05,5.51,5.51,0,0,1-2.88.73,5.86,5.86,0,0,1-3.28-.93,6.09,6.09,0,0,1-2.2-2.59,9,9,0,0,1-.79-3.88,8.69,8.69,0,0,1,.79-3.82,5.89,5.89,0,0,1,2.2-2.56,6.08,6.08,0,0,1,3.28-.89,5.6,5.6,0,0,1,2.88.72,4.62,4.62,0,0,1,1.87,2.06v-7.77a1.13,1.13,0,0,1,.31-.83,1.16,1.16,0,0,1,.85-.3A1.14,1.14,0,0,1,1039.79,239.25Zm-3.14,17.12a6.32,6.32,0,0,0,1.11-4,6.23,6.23,0,0,0-1.11-4,3.85,3.85,0,0,0-3.18-1.39,3.9,3.9,0,0,0-3.2,1.39,6,6,0,0,0-1.15,3.91,6.25,6.25,0,0,0,1.15,4,4.28,4.28,0,0,0,6.38,0Z"/><path d="M1056.24,250.61v7.89a1.17,1.17,0,0,1-.31.84,1.06,1.06,0,0,1-.82.32,1.08,1.08,0,0,1-1.16-1.16v-1.39a4.18,4.18,0,0,1-1.69,1.93,5,5,0,0,1-2.61.68,5.7,5.7,0,0,1-2.51-.55,4.54,4.54,0,0,1-1.81-1.54,3.82,3.82,0,0,1-.66-2.17,3.53,3.53,0,0,1,.81-2.48,4.91,4.91,0,0,1,2.67-1.28,26.34,26.34,0,0,1,5.16-.39h.64v-1a3.83,3.83,0,0,0-.71-2.55,3,3,0,0,0-2.31-.81,8.54,8.54,0,0,0-4,1.07,2.61,2.61,0,0,1-1.1.49.71.71,0,0,1-.58-.26.92.92,0,0,1-.24-.66,1.12,1.12,0,0,1,.25-.71,2.81,2.81,0,0,1,.8-.63,9.36,9.36,0,0,1,2.3-.91,10.36,10.36,0,0,1,2.57-.33Q1056.24,245.05,1056.24,250.61Zm-3.41,6.08a4.23,4.23,0,0,0,1.12-3v-.84h-.53a25.16,25.16,0,0,0-3.88.22,3.69,3.69,0,0,0-1.9.72,1.9,1.9,0,0,0-.57,1.49,2.39,2.39,0,0,0,.83,1.87,3,3,0,0,0,2.07.74A3.79,3.79,0,0,0,1052.83,256.69Z"/><path d="M1079.78,246a6.14,6.14,0,0,1,2.21,2.6,9,9,0,0,1,.78,3.87,8.83,8.83,0,0,1-.78,3.84,5.8,5.8,0,0,1-5.48,3.44,5.54,5.54,0,0,1-2.89-.73,4.65,4.65,0,0,1-1.87-2.05v6.81a1.14,1.14,0,0,1-.3.83,1.36,1.36,0,0,1-1.73,0,1.1,1.1,0,0,1-.32-.81V246.26a1.1,1.1,0,0,1,1.19-1.16,1.15,1.15,0,0,1,.86.32,1.2,1.2,0,0,1,.3.84v1.57a4.68,4.68,0,0,1,1.87-2.06,5.63,5.63,0,0,1,2.89-.72A5.82,5.82,0,0,1,1079.78,246Zm-.55,10.41a6,6,0,0,0,1.13-3.94,6.27,6.27,0,0,0-1.13-4,4.29,4.29,0,0,0-6.36,0,6.17,6.17,0,0,0-1.12,4,6.25,6.25,0,0,0,1.12,4,3.8,3.8,0,0,0,3.17,1.41A3.86,3.86,0,0,0,1079.23,256.38Z"/><path d="M1098.05,250.61v7.89a1.17,1.17,0,0,1-.3.84,1.06,1.06,0,0,1-.83.32,1.12,1.12,0,0,1-.84-.32,1.14,1.14,0,0,1-.32-.84v-1.39a4.16,4.16,0,0,1-1.68,1.93,5,5,0,0,1-2.61.68,5.7,5.7,0,0,1-2.51-.55,4.48,4.48,0,0,1-1.81-1.54,3.83,3.83,0,0,1-.67-2.17,3.53,3.53,0,0,1,.81-2.48,5,5,0,0,1,2.67-1.28,26.48,26.48,0,0,1,5.16-.39h.64v-1a3.77,3.77,0,0,0-.71-2.55,2.91,2.91,0,0,0-2.3-.81,8.54,8.54,0,0,0-4,1.07,2.63,2.63,0,0,1-1.11.49.73.73,0,0,1-.58-.26,1,1,0,0,1-.23-.66,1.06,1.06,0,0,1,.25-.71,2.81,2.81,0,0,1,.8-.63,9.36,9.36,0,0,1,2.3-.91,10.36,10.36,0,0,1,2.57-.33C1096.29,245.05,1098.05,246.9,1098.05,250.61Zm-3.4,6.08a4.22,4.22,0,0,0,1.11-3v-.84h-.52a25.31,25.31,0,0,0-3.89.22,3.65,3.65,0,0,0-1.89.72,1.9,1.9,0,0,0-.57,1.49,2.39,2.39,0,0,0,.83,1.87,3,3,0,0,0,2.07.74A3.79,3.79,0,0,0,1094.65,256.69Z"/><path d="M1111.25,246.09a1,1,0,0,1-.26.74,1.45,1.45,0,0,1-.9.33l-.87.09a3.94,3.94,0,0,0-2.89,1.38,4.42,4.42,0,0,0-.94,2.82v7.05a1.12,1.12,0,0,1-.32.87,1.36,1.36,0,0,1-1.69,0,1.09,1.09,0,0,1-.34-.86V246.26a1.08,1.08,0,0,1,.35-.85,1.24,1.24,0,0,1,.84-.31,1.1,1.1,0,0,1,.78.31,1.06,1.06,0,0,1,.32.82v1.63a4.37,4.37,0,0,1,1.73-1.94,5.79,5.79,0,0,1,2.56-.79l.41,0C1110.84,245.05,1111.25,245.37,1111.25,246.09Z"/><path d="M1124.94,250.61v7.89a1.17,1.17,0,0,1-.31.84,1.06,1.06,0,0,1-.82.32,1.08,1.08,0,0,1-1.16-1.16v-1.39A4.18,4.18,0,0,1,1121,259a5,5,0,0,1-2.61.68,5.7,5.7,0,0,1-2.51-.55,4.54,4.54,0,0,1-1.81-1.54,3.82,3.82,0,0,1-.66-2.17,3.53,3.53,0,0,1,.81-2.48,4.91,4.91,0,0,1,2.67-1.28,26.34,26.34,0,0,1,5.16-.39h.64v-1a3.83,3.83,0,0,0-.71-2.55,3,3,0,0,0-2.31-.81,8.54,8.54,0,0,0-4,1.07,2.61,2.61,0,0,1-1.1.49.71.71,0,0,1-.58-.26.92.92,0,0,1-.24-.66,1.12,1.12,0,0,1,.25-.71,2.81,2.81,0,0,1,.8-.63,9.36,9.36,0,0,1,2.3-.91,10.36,10.36,0,0,1,2.57-.33Q1124.94,245.05,1124.94,250.61Zm-3.41,6.08a4.23,4.23,0,0,0,1.12-3v-.84h-.53a25.16,25.16,0,0,0-3.88.22,3.69,3.69,0,0,0-1.9.72,1.9,1.9,0,0,0-.57,1.49,2.39,2.39,0,0,0,.83,1.87,3,3,0,0,0,2.07.74A3.79,3.79,0,0,0,1121.53,256.69Z"/><path d="M1143.64,243a2.73,2.73,0,0,0-.52,1.79v.5h2c1.31,0,2,.55,2,1.65s-.66,1.62-2,1.62h-2v9.05a1.91,1.91,0,0,1-.62,1.54,2.35,2.35,0,0,1-1.56.52,2.39,2.39,0,0,1-1.58-.52,1.91,1.91,0,0,1-.62-1.54v-9.05h-1.16c-1.29,0-1.94-.54-1.94-1.62s.65-1.65,1.94-1.65h1.16a6,6,0,0,1,1.54-4.38,6.31,6.31,0,0,1,4.23-1.8l.76-.06.52,0c1.33,0,2,.52,2,1.54s-.56,1.56-1.68,1.65l-.76.06A2.32,2.32,0,0,0,1143.64,243Z"/><path d="M1160.11,246.45a6.37,6.37,0,0,1,1.51,4.66v6.55a2,2,0,0,1-.55,1.49,2.11,2.11,0,0,1-1.54.54,2,2,0,0,1-1.49-.57,2,2,0,0,1-.57-1.46v-.2a3.43,3.43,0,0,1-1.45,1.68,4.45,4.45,0,0,1-2.37.61,5.84,5.84,0,0,1-2.63-.58,4.58,4.58,0,0,1-1.85-1.63,4.08,4.08,0,0,1-.69-2.32,3.59,3.59,0,0,1,.8-2.46,4.83,4.83,0,0,1,2.57-1.31,22.75,22.75,0,0,1,4.84-.4h.76v-.52a2.43,2.43,0,0,0-.54-1.77,2.4,2.4,0,0,0-1.78-.55,11.39,11.39,0,0,0-3.6.87,2.79,2.79,0,0,1-1.13.32,1.26,1.26,0,0,1-1-.45,1.79,1.79,0,0,1-.37-1.18,1.64,1.64,0,0,1,.26-1,2.32,2.32,0,0,1,.84-.69,9.21,9.21,0,0,1,2.48-.87,13.66,13.66,0,0,1,2.88-.32A6.29,6.29,0,0,1,1160.11,246.45Zm-3.45,9.43a3.17,3.17,0,0,0,.79-2.22v-.49h-.5a10,10,0,0,0-3.29.37,1.37,1.37,0,0,0-.94,1.37,1.76,1.76,0,0,0,.53,1.32,1.93,1.93,0,0,0,1.35.5A2.66,2.66,0,0,0,1156.66,255.88Z"/><path d="M1175.47,245.38a1.71,1.71,0,0,1,.51,1.35,1.93,1.93,0,0,1-.47,1.42,2.71,2.71,0,0,1-1.65.58l-.87.09a3.3,3.3,0,0,0-2.31,1,3.42,3.42,0,0,0-.71,2.23v5.54a1.91,1.91,0,0,1-.62,1.54,2.32,2.32,0,0,1-1.55.52,2.35,2.35,0,0,1-1.58-.52,1.89,1.89,0,0,1-.63-1.54V247a1.82,1.82,0,0,1,.64-1.48,2.35,2.35,0,0,1,1.54-.52,2.12,2.12,0,0,1,1.45.51,1.73,1.73,0,0,1,.58,1.4v.78a4,4,0,0,1,1.58-1.91,4.82,4.82,0,0,1,2.31-.75l.4,0A1.81,1.81,0,0,1,1175.47,245.38Z"/><path d="M1199,246.34c.83.93,1.25,2.47,1.25,4.59v6.7a1.94,1.94,0,0,1-.61,1.54,2.32,2.32,0,0,1-1.57.52,2.35,2.35,0,0,1-1.56-.52,1.86,1.86,0,0,1-.64-1.54v-6.76a3,3,0,0,0-.48-2,1.81,1.81,0,0,0-1.46-.57,2.45,2.45,0,0,0-2,.84,3.51,3.51,0,0,0-.72,2.35v6.09a1.94,1.94,0,0,1-.61,1.54,2.32,2.32,0,0,1-1.57.52,2.35,2.35,0,0,1-1.56-.52,1.86,1.86,0,0,1-.64-1.54v-6.76a3,3,0,0,0-.48-2,1.81,1.81,0,0,0-1.47-.57,2.43,2.43,0,0,0-1.94.84,3.51,3.51,0,0,0-.72,2.35v6.09a1.89,1.89,0,0,1-.63,1.54,2.31,2.31,0,0,1-1.55.52,2.35,2.35,0,0,1-1.56-.52,1.86,1.86,0,0,1-.64-1.54V247a1.8,1.8,0,0,1,.65-1.48,2.44,2.44,0,0,1,1.58-.52,2.12,2.12,0,0,1,1.45.51,1.73,1.73,0,0,1,.58,1.4v.29a4.78,4.78,0,0,1,1.81-1.68,5.4,5.4,0,0,1,2.54-.58,5.11,5.11,0,0,1,2.6.62,4.11,4.11,0,0,1,1.64,2,4.83,4.83,0,0,1,1.9-1.93,5.51,5.51,0,0,1,2.79-.71A4.51,4.51,0,0,1,1199,246.34Z"/><path d="M1215.33,246.45a6.42,6.42,0,0,1,1.51,4.66v6.55a2,2,0,0,1-.55,1.49,2.11,2.11,0,0,1-1.54.54,2,2,0,0,1-1.5-.57,2,2,0,0,1-.56-1.46v-.2a3.43,3.43,0,0,1-1.45,1.68,4.51,4.51,0,0,1-2.38.61,5.76,5.76,0,0,1-2.62-.58,4.54,4.54,0,0,1-1.86-1.63,4.15,4.15,0,0,1-.68-2.32,3.54,3.54,0,0,1,.8-2.46,4.8,4.8,0,0,1,2.56-1.31,22.85,22.85,0,0,1,4.85-.4h.75v-.52a2.43,2.43,0,0,0-.54-1.77,2.39,2.39,0,0,0-1.78-.55,11.35,11.35,0,0,0-3.59.87,2.83,2.83,0,0,1-1.14.32,1.25,1.25,0,0,1-1-.45,1.8,1.8,0,0,1-.38-1.18,1.72,1.72,0,0,1,.26-1,2.51,2.51,0,0,1,.84-.69,9.33,9.33,0,0,1,2.48-.87,13.75,13.75,0,0,1,2.89-.32A6.31,6.31,0,0,1,1215.33,246.45Zm-3.45,9.43a3.17,3.17,0,0,0,.78-2.22v-.49h-.49a9.93,9.93,0,0,0-3.29.37,1.37,1.37,0,0,0-1,1.37,1.73,1.73,0,0,0,.54,1.32,1.93,1.93,0,0,0,1.35.5A2.66,2.66,0,0,0,1211.88,255.88Z"/><path d="M1223.54,258.85a6.12,6.12,0,0,1-2.54-2.55,8.12,8.12,0,0,1-.89-3.89,7.94,7.94,0,0,1,1-3.93,6.49,6.49,0,0,1,2.65-2.62,8.11,8.11,0,0,1,3.94-.93,9,9,0,0,1,2.34.32,7.65,7.65,0,0,1,2.1.9,1.79,1.79,0,0,1,.9,1.62,2,2,0,0,1-.35,1.23,1.09,1.09,0,0,1-.93.48,1.87,1.87,0,0,1-.71-.13c-.22-.08-.51-.22-.88-.39a8.72,8.72,0,0,0-1.09-.49,3.47,3.47,0,0,0-3.57.85,4.6,4.6,0,0,0-.85,3,4.66,4.66,0,0,0,.85,3,3,3,0,0,0,2.48,1,3.52,3.52,0,0,0,1.08-.15,9.79,9.79,0,0,0,1.13-.51,8.77,8.77,0,0,1,.87-.39,1.73,1.73,0,0,1,.69-.13,1.11,1.11,0,0,1,.92.49,2.06,2.06,0,0,1,.36,1.25,1.72,1.72,0,0,1-.9,1.59,7.48,7.48,0,0,1-2.15.9,10.12,10.12,0,0,1-2.55.32A7.91,7.91,0,0,1,1223.54,258.85Z"/><path d="M1236.21,242.07a2,2,0,0,1-.67-1.61,2,2,0,0,1,.67-1.59,2.66,2.66,0,0,1,1.83-.58,2.7,2.7,0,0,1,1.81.59,2.22,2.22,0,0,1,0,3.19,3.08,3.08,0,0,1-3.65,0Zm.25,17.1a1.89,1.89,0,0,1-.63-1.54V247.05a1.86,1.86,0,0,1,.64-1.54A2.38,2.38,0,0,1,1238,245a2.34,2.34,0,0,1,1.55.52,1.91,1.91,0,0,1,.62,1.54v10.58a1.91,1.91,0,0,1-.62,1.54,2.61,2.61,0,0,1-3.13,0Z"/><path d="M1255.32,246.45a6.42,6.42,0,0,1,1.51,4.66v6.55a2,2,0,0,1-.55,1.49,2.11,2.11,0,0,1-1.54.54,2,2,0,0,1-1.49-.57,2,2,0,0,1-.57-1.46v-.2a3.43,3.43,0,0,1-1.45,1.68,4.51,4.51,0,0,1-2.38.61,5.76,5.76,0,0,1-2.62-.58,4.61,4.61,0,0,1-1.86-1.63,4.15,4.15,0,0,1-.68-2.32,3.59,3.59,0,0,1,.8-2.46,4.8,4.8,0,0,1,2.56-1.31,22.85,22.85,0,0,1,4.85-.4h.75v-.52a2.43,2.43,0,0,0-.54-1.77,2.39,2.39,0,0,0-1.78-.55,11.35,11.35,0,0,0-3.59.87,2.83,2.83,0,0,1-1.14.32,1.25,1.25,0,0,1-1-.45,1.8,1.8,0,0,1-.38-1.18,1.72,1.72,0,0,1,.26-1,2.51,2.51,0,0,1,.84-.69,9.33,9.33,0,0,1,2.48-.87,13.75,13.75,0,0,1,2.89-.32A6.31,6.31,0,0,1,1255.32,246.45Zm-3.45,9.43a3.17,3.17,0,0,0,.78-2.22v-.49h-.49a9.93,9.93,0,0,0-3.29.37,1.37,1.37,0,0,0-.95,1.37,1.73,1.73,0,0,0,.54,1.32,1.93,1.93,0,0,0,1.35.5A2.66,2.66,0,0,0,1251.87,255.88Z"/><path d="M1263.12,259.46a6.81,6.81,0,0,1-2.29-.93,1.8,1.8,0,0,1-.67-.7,2.08,2.08,0,0,1-.23-1,1.64,1.64,0,0,1,.38-1.12,1.16,1.16,0,0,1,.92-.45,2.48,2.48,0,0,1,.76.13c.25.09.51.19.78.31a9.73,9.73,0,0,0,1.6.59,7.15,7.15,0,0,0,1.94.22,3.27,3.27,0,0,0,1.58-.32,1,1,0,0,0,.57-.87.89.89,0,0,0-.25-.65,2.17,2.17,0,0,0-.92-.45c-.44-.14-1.15-.3-2.11-.49a8.05,8.05,0,0,1-3.71-1.48,3.46,3.46,0,0,1-1.14-2.76,3.8,3.8,0,0,1,.8-2.35,5.37,5.37,0,0,1,2.19-1.64,8,8,0,0,1,3.13-.59,9.44,9.44,0,0,1,2.44.32,7.65,7.65,0,0,1,2.12.9,1.93,1.93,0,0,1,.52,2.78,1.16,1.16,0,0,1-.93.47,3.37,3.37,0,0,1-1.59-.53,8.47,8.47,0,0,0-1.32-.56,4.58,4.58,0,0,0-1.41-.19,2.64,2.64,0,0,0-1.42.33,1,1,0,0,0-.52.92,1,1,0,0,0,.61.92,8.9,8.9,0,0,0,2.34.64,12.4,12.4,0,0,1,3,.92,3.67,3.67,0,0,1,1.6,1.34,4,4,0,0,1,.49,2.06,3.83,3.83,0,0,1-1.7,3.28,7.63,7.63,0,0,1-4.54,1.22A14.49,14.49,0,0,1,1263.12,259.46Z"/></g></g></svg>