<svg xmlns="http://www.w3.org/2000/svg" viewBox="0 0 192 192"><defs><style>.cls-1{fill:#6cc0a7;}.cls-2,.cls-3{fill:#fff;}.cls-3{font-size:28.25px;font-family:Nunito-Bold, Nunito;font-weight:700;}.cls-4{letter-spacing:-0.02em;}</style></defs><title>imagen_logo_whatsapp</title><g id="Capa_2" data-name="Capa 2"><g id="Objects"><rect class="cls-1" width="192" height="192"/><path class="cls-2" d="M151.13,80.44h-2.49v2.77s-.15.8-.86.55a33.41,33.41,0,0,1-4-3.32H130.52A3.48,3.48,0,0,1,127,77v-8a3.48,3.48,0,0,1,3.48-3.48h20.61a3.48,3.48,0,0,1,3.48,3.48v8A3.48,3.48,0,0,1,151.13,80.44Z"/><circle class="cls-1" cx="146.71" cy="70.95" r="1.84"/><circle class="cls-1" cx="134.9" cy="70.95" r="1.84"/><path class="cls-1" d="M144,74.8a3.38,3.38,0,0,1-6.75,0C137.28,74.53,144,74.64,144,74.8Z"/><circle class="cls-2" cx="130.88" cy="59.3" r="1.85"/><path class="cls-2" d="M131.76,64.31H130v-2.8a1.5,1.5,0,0,0,1.75,0Z"/><text class="cls-3" transform="translate(24.58 80.5)"><tspan class="cls-4">F</tspan><tspan x="15.57" y="0" xml:space="preserve">armaB    t</tspan></text><path class="cls-2" d="M119.67,145.57h-5.76V152s-.36,1.84-2,1.27-9.16-7.66-9.16-7.66H72.09a8,8,0,0,1-8-8V119a8,8,0,0,1,8-8h47.58a8,8,0,0,1,8,8v18.5A8,8,0,0,1,119.67,145.57Z"/><circle class="cls-1" cx="109.46" cy="123.66" r="4.26"/><circle class="cls-1" cx="82.21" cy="123.66" r="4.26"/><path class="cls-1" d="M103.27,132.54a7.79,7.79,0,1,1-15.57,0C87.7,131.93,103.28,132.16,103.27,132.54Z"/><circle class="cls-2" cx="72.94" cy="96.76" r="4.26"/><path class="cls-2" d="M75,108.33h-4v-6.46a3.47,3.47,0,0,0,4,0Z"/></g></g></svg>