<svg xmlns="http://www.w3.org/2000/svg" viewBox="0 0 208.46 46.79"><defs><style>.cls-1{fill:#458478;}.cls-2{font-size:41.5px;fill:#72ecba;font-family:Nunito-Bold, Nunito;font-weight:700;letter-spacing:-0.02em;}.cls-3{letter-spacing:0em;}</style></defs><title>logo_color</title><g id="Capa_2" data-name="Capa 2"><g id="Objects"><path class="cls-1" d="M185.9,13.29H155.62a5.11,5.11,0,0,0-5.11,5.11V30.18a5.11,5.11,0,0,0,5.11,5.12h19.52s4.79,4.51,5.83,4.87,1.26-.81,1.26-.81V35.3h3.66A5.11,5.11,0,0,0,191,30.18V18.4A5.11,5.11,0,0,0,185.9,13.29ZM162.06,24.06a2.71,2.71,0,1,1,2.71-2.71A2.71,2.71,0,0,1,162.06,24.06Zm8.45,7.9a5,5,0,0,1-5-4.95c0-.39,9.92-.25,9.91,0A5,5,0,0,1,170.51,32Zm8.89-7.9a2.71,2.71,0,1,1,2.71-2.71A2.71,2.71,0,0,1,179.4,24.06Z"/><circle class="cls-1" cx="156.16" cy="4.23" r="2.71"/><path class="cls-1" d="M157.44,11.59h-2.57V7.49a2.24,2.24,0,0,0,2.57,0Z"/><text class="cls-2" transform="translate(0 35.38)">F<tspan class="cls-3" x="22.87" y="0" xml:space="preserve">armaB    t</tspan></text></g></g></svg>