<svg xmlns="http://www.w3.org/2000/svg" viewBox="0 0 276.36 62.03"><defs><style>.cls-1,.cls-2{fill:#fff;}.cls-2{font-size:55.02px;font-family:Nunito-Bold, Nunito;font-weight:700;letter-spacing:-0.01em;}.cls-3{letter-spacing:0em;}</style></defs><title>Logo_blanco</title><g id="Capa_2" data-name="Capa 2"><g id="Designed_by_Freepik" data-name="Designed by Freepik"><path class="cls-1" d="M246.45,17.61H206.3a6.79,6.79,0,0,0-6.78,6.79V40a6.78,6.78,0,0,0,6.78,6.78h25.88s6.35,6,7.73,6.47,1.67-1.08,1.67-1.08V46.79h4.86A6.78,6.78,0,0,0,253.23,40V24.4A6.79,6.79,0,0,0,246.45,17.61ZM214.84,31.89a3.59,3.59,0,1,1,3.59-3.59A3.59,3.59,0,0,1,214.84,31.89ZM226,42.37a6.56,6.56,0,0,1-6.57-6.57c0-.52,13.15-.32,13.14,0A6.59,6.59,0,0,1,226,42.37Zm11.79-10.48a3.59,3.59,0,1,1,3.59-3.59A3.59,3.59,0,0,1,237.83,31.89Z"/><circle class="cls-1" cx="207.02" cy="5.61" r="3.59"/><path class="cls-1" d="M208.72,15.37h-3.4V9.92a2.91,2.91,0,0,0,3.4,0Z"/><text class="cls-2" transform="translate(0 46.9)">F<tspan class="cls-3" x="30.32" y="0" xml:space="preserve">armaB    t</tspan></text></g></g></svg>