<svg xmlns="http://www.w3.org/2000/svg" viewBox="0 0 229 164.62"><defs><style>.cls-1{fill:#fff;}.cls-2{fill:#3e3d54;}.cls-3{fill:#90e8bc;}.cls-4{fill:#cbcbcb;}.cls-5{fill:#f1f1f1;}.cls-6{fill:#f4bab9;}.cls-7{fill:#2f2e40;}</style></defs><title>Recurso 21</title><g id="Capa_2" data-name="Capa 2"><g id="Objects"><rect class="cls-1" x="80.91" width="148.09" height="163.99" rx="5.14"/><path class="cls-2" d="M223.65,164.43H86.26a5.35,5.35,0,0,1-5.35-5.34V5.34A5.35,5.35,0,0,1,86.26,0H223.65A5.35,5.35,0,0,1,229,5.34V159.09A5.35,5.35,0,0,1,223.65,164.43ZM86.26.63a4.71,4.71,0,0,0-4.72,4.71V159.09a4.73,4.73,0,0,0,4.72,4.72H223.65a4.73,4.73,0,0,0,4.72-4.72V5.34A4.71,4.71,0,0,0,223.65.63Z"/><rect class="cls-2" x="81.23" y="13.08" width="147.46" height="0.63"/><circle class="cls-3" cx="88.46" cy="6.92" r="2.52"/><circle class="cls-3" cx="96.32" cy="6.92" r="2.52"/><circle class="cls-3" cx="104.18" cy="6.92" r="2.52"/><path class="cls-2" d="M204,36.16H105.91a4.09,4.09,0,0,1,0-8.18H204a4.09,4.09,0,1,1,0,8.18Zm-98.09-7.55a3.46,3.46,0,1,0,0,6.92H204a3.46,3.46,0,1,0,0-6.92Z"/><path class="cls-4" d="M179.75,68.41H135.1a2.52,2.52,0,0,1,0-5h44.65a2.52,2.52,0,0,1,0,5Z"/><path class="cls-4" d="M205.53,76.9H135.1a2.52,2.52,0,0,1,0-5h70.43a2.52,2.52,0,0,1,0,5Z"/><path class="cls-4" d="M118.37,77.37H104.85a3,3,0,0,1-3-3V65.9a3,3,0,0,1,3-3h13.52a3,3,0,0,1,3,3v8.49A3,3,0,0,1,118.37,77.37ZM104.85,63.54a2.36,2.36,0,0,0-2.36,2.36v8.49a2.36,2.36,0,0,0,2.36,2.35h13.52a2.36,2.36,0,0,0,2.36-2.35V65.9a2.36,2.36,0,0,0-2.36-2.36Z"/><path class="cls-4" d="M179.75,98.28H135.1a2.52,2.52,0,0,1,0-5h44.65a2.52,2.52,0,0,1,0,5Z"/><path class="cls-4" d="M205.53,106.77H135.1a2.52,2.52,0,0,1,0-5h70.43a2.52,2.52,0,0,1,0,5Z"/><path class="cls-4" d="M118.37,107.24H104.85a3,3,0,0,1-3-3V95.77a3,3,0,0,1,3-3h13.52a3,3,0,0,1,3,3v8.48A3,3,0,0,1,118.37,107.24ZM104.85,93.41a2.36,2.36,0,0,0-2.36,2.36v8.48a2.36,2.36,0,0,0,2.36,2.36h13.52a2.36,2.36,0,0,0,2.36-2.36V95.77a2.36,2.36,0,0,0-2.36-2.36Z"/><path class="cls-5" d="M179.75,128.15H135.1a2.52,2.52,0,0,1,0-5h44.65a2.52,2.52,0,0,1,0,5Z"/><path class="cls-5" d="M205.53,136.64H135.1a2.52,2.52,0,0,1,0-5h70.43a2.52,2.52,0,0,1,0,5Z"/><path class="cls-5" d="M118.37,137.11H104.85a3,3,0,0,1-3-3v-8.49a3,3,0,0,1,3-3h13.52a3,3,0,0,1,3,3v8.49A3,3,0,0,1,118.37,137.11Z"/><path class="cls-3" d="M111.61,74.78l-.73-.66c-2.58-2.38-4.29-3.92-4.29-5.83a2.73,2.73,0,0,1,2.68-2.78h.08a2.94,2.94,0,0,1,2.26,1.06,3,3,0,0,1,2.26-1.06,2.73,2.73,0,0,1,2.76,2.7v.08c0,1.91-1.7,3.45-4.29,5.83Z"/><path class="cls-3" d="M111.61,104.64l-.73-.65c-2.58-2.38-4.29-3.92-4.29-5.84a2.73,2.73,0,0,1,2.68-2.77h.08a2.94,2.94,0,0,1,2.26,1.06,3,3,0,0,1,2.26-1.06,2.73,2.73,0,0,1,2.76,2.69v.08c0,1.92-1.7,3.46-4.29,5.84Z"/><path class="cls-2" d="M54.5,99.62H41a3,3,0,0,1-3-3V88.14a3,3,0,0,1,3-3H54.5a3,3,0,0,1,3,3v8.49A3,3,0,0,1,54.5,99.62ZM41,85.79a2.36,2.36,0,0,0-2.36,2.35v8.49A2.36,2.36,0,0,0,41,99H54.5a2.36,2.36,0,0,0,2.35-2.36V88.14a2.35,2.35,0,0,0-2.35-2.35Z"/><path class="cls-3" d="M47.74,97,47,96.36c-2.59-2.37-4.29-3.91-4.29-5.83a2.73,2.73,0,0,1,2.68-2.78h.08a3,3,0,0,1,2.26,1.06A3,3,0,0,1,50,87.75a2.74,2.74,0,0,1,2.76,2.7v.08c0,1.92-1.71,3.46-4.3,5.83Z"/><polygon class="cls-6" points="39.92 161.01 43.41 160.18 41.87 146.29 36.71 147.52 39.92 161.01"/><path class="cls-7" d="M50.93,161.82l-11,2.61h0l-1-4.24h0l6.75-1.61a4.37,4.37,0,0,1,5.25,3.24Z"/><path class="cls-7" d="M36.49,152.07l-7.6-26,9.49-2.35L44,151.25a1.42,1.42,0,0,1-1.11,1.67,1,1,0,0,1-.24,0l-4.71.14h0A1.41,1.41,0,0,1,36.49,152.07Z"/><polygon class="cls-6" points="18.26 161.1 21.86 161.1 23.57 147.23 18.26 147.23 18.26 161.1"/><path class="cls-7" d="M28.79,164.43H17.49v-4.36h6.94a4.36,4.36,0,0,1,4.36,4.36Z"/><path class="cls-7" d="M17.63,155.71a1.4,1.4,0,0,1-.42-1l-3.27-26a1.41,1.41,0,0,1,1.4-1.42l7.31,0h0a1.41,1.41,0,0,1,1.41,1.39l.39,25.58a1.41,1.41,0,0,1-1.38,1.43l-4.44.43h0A1.43,1.43,0,0,1,17.63,155.71Z"/><circle class="cls-6" cx="19.2" cy="62.05" r="7.72"/><path class="cls-3" d="M9,127.4c-5-3.92-5-8.5-3.26-14.62.48-1.72,1-3.47,1.56-5.32,2.56-8.59,5.47-18.33,4.36-26.37l.16,0-.16,0a8,8,0,0,1,2.12-6.35,7.94,7.94,0,0,1,6.08-2.8,8,8,0,0,1,5.93,3.12c1.54,1.91,2.27,8.63,2.49,9.6a83.23,83.23,0,0,1,2,11.35c.51,5,6.64,20.09,8.59,22.61a6,6,0,0,1,1.15,4.76,5.58,5.58,0,0,1-2.65,3.81,31.87,31.87,0,0,1-10.29,4.05,24.84,24.84,0,0,1-4.79.46A21.67,21.67,0,0,1,9,127.4Z"/><path class="cls-6" d="M41.14,98.31a3,3,0,0,0-4.42-1L30.87,94,28,97.07l8.33,4.6a3,3,0,0,0,4.84-3.36Z"/><path class="cls-7" d="M32.22,100.58l-10.49-3.3a7.22,7.22,0,0,1-5-6.55l-.45-10.19a4.26,4.26,0,1,1,8.52-.38,1.71,1.71,0,0,1,0,.32l-.28,9.38,11.16,4.55a1.42,1.42,0,0,1,.77,1.85,1.51,1.51,0,0,1-.15.28L33.8,100a1.43,1.43,0,0,1-1.58.54Z"/><path class="cls-7" d="M6.75,71.66a37.46,37.46,0,0,0,.33-6.43c0-.58,0-1.16,0-1.73a21.07,21.07,0,0,1,1.27-8.11,9,9,0,0,1,5.89-5.47A5.88,5.88,0,0,1,21,53.17a4.72,4.72,0,1,1,4.64,8.21,4.57,4.57,0,0,1-1.76.58h-.12l-.92-2.39s0,.09,0,.13a1.72,1.72,0,0,1-.53,1.3h0a3.29,3.29,0,0,0-1,2.82,10.82,10.82,0,0,0,.52,1.85,11,11,0,0,1,.55,2,3.5,3.5,0,0,1-.66,2.52,2,2,0,0,1-1.33.76L10.07,72.07l-.46-3.46L6.66,72.24Z"/><path class="cls-4" d="M60.68,164.62H.31a.32.32,0,0,1,0-.63H60.68a.32.32,0,0,1,0,.63Z"/></g></g></svg>