<svg xmlns="http://www.w3.org/2000/svg" xmlns:xlink="http://www.w3.org/1999/xlink" viewBox="0 0 473.43 435"><defs><style>.cls-1{fill:#58595b;}.cls-2{fill:#221f20;}.cls-3{fill:#fff;}.cls-4{fill:#e5e5e5;}.cls-5{fill:#f1f1f1;}.cls-6{fill:#cbcbcb;}.cls-7{fill:#f4bab9;}.cls-8{fill:#2f2e40;}.cls-9{fill:#8fe5b9;}.cls-10{opacity:0.2;isolation:isolate;}</style></defs><title>Recurso 32</title><g id="Capa_2" data-name="Capa 2"><g id="Designed_by_Freepik" data-name="Designed by Freepik"><image width="1125" height="2436" transform="translate(190.53 9.35) scale(0.17)" xlink:href="../../../../../IMG_B255E15F0050-1.jpeg"/><path class="cls-1" d="M392.17,31.56A31.56,31.56,0,0,0,360.61,0H210a31.56,31.56,0,0,0-31.56,31.56V403.27A31.56,31.56,0,0,0,210,434.83H360.61a31.56,31.56,0,0,0,31.56-31.56ZM387.33,403a27,27,0,0,1-27,27H209.65a27,27,0,0,1-27-27V31.26a27,27,0,0,1,27-27H360.31a27,27,0,0,1,27,27Z"/><path d="M178.39,57.4h-.28a2,2,0,0,0-2,2V71.82a2,2,0,0,0,2,2h.28"/><path d="M392.17,149.53h0a2.32,2.32,0,0,0,2.33-2.32v-46a2.32,2.32,0,0,0-2.33-2.32h0"/><path d="M178.39,89.07h0a2.32,2.32,0,0,0-2.32,2.32v26.14a2.32,2.32,0,0,0,2.32,2.32h0"/><path d="M178.39,128.58h0a2.32,2.32,0,0,0-2.32,2.32v26.15a2.32,2.32,0,0,0,2.32,2.32h0"/><path class="cls-2" d="M387.33,31.26a27,27,0,0,0-27-27H209.65a27,27,0,0,0-27,27V403a27,27,0,0,0,27,27H360.31a27,27,0,0,0,27-27ZM310.25,14.85a2.65,2.65,0,1,1-2.65-2.65A2.65,2.65,0,0,1,310.25,14.85Zm-36-1.53h23.62a1.66,1.66,0,0,1,1.82,1.52,1.65,1.65,0,0,1-1.82,1.51H274.21a1.64,1.64,0,0,1-1.81-1.51A1.65,1.65,0,0,1,274.21,13.32Zm106.46,388.9c0,10.58-8.86,18.68-19.44,18.68H210.43a18.38,18.38,0,0,1-18.71-18.68V30.82c0-10.57,8.14-19.31,18.71-19.31h17.44c3.68,0,5,0,5.27,4.69.23,4.86,3.56,7.5,8.07,8.91a16.4,16.4,0,0,0,4.86.33h79.69c1.62,0,3.32.27,4.85-.21,4.51-1.41,7.85-4.29,8.08-9.14.22-4.67,1.58-4.58,5.27-4.58h17.27a19.54,19.54,0,0,1,19.44,19.31Z"/><path class="cls-3" d="M305,14.85a2.65,2.65,0,1,0,2.65-2.65A2.64,2.64,0,0,0,305,14.85Z"/><path class="cls-3" d="M274.21,16.35h23.62a1.65,1.65,0,0,0,1.82-1.51,1.66,1.66,0,0,0-1.82-1.52H274.21a1.65,1.65,0,0,0-1.81,1.52A1.64,1.64,0,0,0,274.21,16.35Z"/><path class="cls-4" d="M461.29,274.08h-50a7.19,7.19,0,0,1-5.69-2.76h0a7.28,7.28,0,0,1-1.37-6.25,126.56,126.56,0,0,0,0-58.76,7.3,7.3,0,0,1,1.37-6.26,7.21,7.21,0,0,1,5.69-2.75h50a7.29,7.29,0,0,1,7.18,6.12,212.25,212.25,0,0,1,0,64.54A7.29,7.29,0,0,1,461.29,274.08Z"/><path class="cls-3" d="M411.26,201.06a3.47,3.47,0,0,0-2.74,1.32,3.59,3.59,0,0,0-.66,3.05,130.3,130.3,0,0,1,0,60.52,3.57,3.57,0,0,0,.66,3h0a3.48,3.48,0,0,0,2.74,1.33h50a3.5,3.5,0,0,0,3.46-2.93,208.62,208.62,0,0,0,0-63.4,3.5,3.5,0,0,0-3.46-2.93Z"/><path class="cls-4" d="M450.37,219.16H424.12a3.76,3.76,0,0,1-3.77-3.76v-1.47a3.78,3.78,0,0,1,3.77-3.77h26.25a3.78,3.78,0,0,1,3.77,3.77v1.47A3.76,3.76,0,0,1,450.37,219.16Z"/><path class="cls-4" d="M450.37,237.75H424.12a3.76,3.76,0,0,1-3.77-3.76v-1.47a3.78,3.78,0,0,1,3.77-3.77h26.25a3.78,3.78,0,0,1,3.77,3.77V234A3.76,3.76,0,0,1,450.37,237.75Z"/><path class="cls-4" d="M450.37,256.34H424.12a3.76,3.76,0,0,1-3.77-3.76v-1.47a3.77,3.77,0,0,1,3.77-3.77h26.25a3.77,3.77,0,0,1,3.77,3.77v1.47A3.76,3.76,0,0,1,450.37,256.34Z"/><path class="cls-4" d="M464.2,143.08H416.35a6.88,6.88,0,0,1-5.44-2.63h0a7,7,0,0,1-1.31-6,121,121,0,0,0,0-56.2,7,7,0,0,1,6.75-8.62H464.2a7,7,0,0,1,6.86,5.86,202.73,202.73,0,0,1,0,61.72A7,7,0,0,1,464.2,143.08Z"/><path class="cls-3" d="M416.35,73.25a3.32,3.32,0,0,0-2.61,1.27,3.39,3.39,0,0,0-.64,2.91,124.55,124.55,0,0,1,0,57.88,3.39,3.39,0,0,0,.64,2.91h0a3.28,3.28,0,0,0,2.61,1.26H464.2a3.33,3.33,0,0,0,3.3-2.8,198.8,198.8,0,0,0,0-60.63,3.34,3.34,0,0,0-3.3-2.8Z"/><path class="cls-5" d="M136.52,87.69h-55A8.26,8.26,0,0,1,75,84.53a8.38,8.38,0,0,1-1.57-7.18,138.8,138.8,0,0,0,0-64.47A8.39,8.39,0,0,1,75,5.7a8.26,8.26,0,0,1,6.53-3.16h55a8.37,8.37,0,0,1,8.24,7,234.1,234.1,0,0,1,0,71.1A8.37,8.37,0,0,1,136.52,87.69Z"/><path class="cls-4" d="M453.76,99.57H428.65a3.6,3.6,0,0,1-3.6-3.6V94.56a3.6,3.6,0,0,1,3.6-3.6h25.11a3.6,3.6,0,0,1,3.6,3.6V96A3.61,3.61,0,0,1,453.76,99.57Z"/><path class="cls-4" d="M453.76,117.34H428.65a3.6,3.6,0,0,1-3.6-3.6v-1.4a3.6,3.6,0,0,1,3.6-3.6h25.11a3.6,3.6,0,0,1,3.6,3.6v1.4A3.6,3.6,0,0,1,453.76,117.34Z"/><circle class="cls-3" cx="109.15" cy="44.83" r="15.88"/><path class="cls-4" d="M116.75,42.76h-5.53V37.24a2.07,2.07,0,1,0-4.14,0v5.52h-5.52a2.07,2.07,0,0,0,0,4.14h5.52v5.52a2.07,2.07,0,1,0,4.14,0V46.9h5.53a2.07,2.07,0,0,0,0-4.14Z"/><path class="cls-6" d="M449,204.37H422.61a2.83,2.83,0,0,1-2.82-2.83v-5a2.82,2.82,0,0,1,2.82-2.82H449a2.83,2.83,0,0,1,2.83,2.82v5A2.83,2.83,0,0,1,449,204.37Z"/><path class="cls-6" d="M453.61,77h-25.2a2.7,2.7,0,0,1-2.7-2.7v-4.8a2.7,2.7,0,0,1,2.7-2.7h25.2a2.7,2.7,0,0,1,2.7,2.7v4.8A2.7,2.7,0,0,1,453.61,77Z"/><polygon class="cls-7" points="80.25 423.73 91.35 423.73 94.82 380.9 80.24 380.9 80.25 423.73"/><path class="cls-8" d="M77.41,420.11H99.28A13.93,13.93,0,0,1,113.22,434h0v.45H77.41Z"/><polygon class="cls-7" points="20.47 423.73 31.57 423.73 36.85 380.9 20.46 380.9 20.47 423.73"/><path class="cls-8" d="M17.63,420.11H39.5A13.93,13.93,0,0,1,53.44,434h0v.45H17.63Z"/><path class="cls-8" d="M22.44,410.2A4.53,4.53,0,0,1,19.38,409h0a4.51,4.51,0,0,1-1.46-3.21L13.46,246.2,76.69,262,96.2,320.53a63.62,63.62,0,0,1,3.21,23.39L97,400.66A4.53,4.53,0,0,1,92.47,405H81.86a4.56,4.56,0,0,1-4.49-3.92l-7.58-62.63a34.19,34.19,0,0,0-5-13.73L49.87,301.07a.91.91,0,0,0-1.67.37L36.5,405.68a4.52,4.52,0,0,1-4.25,4l-9.56.53Z"/><circle class="cls-7" cx="66.17" cy="120.62" r="22.25"/><path class="cls-9" d="M76.39,268.5a4.33,4.33,0,0,1-1.13-.15h0L12.52,252.27A4.53,4.53,0,0,1,9.2,247l14.41-77.61A28.27,28.27,0,0,1,40.14,149a27.28,27.28,0,0,1,25.6,1.88c.88.55,1.76,1.15,2.63,1.78a28,28,0,0,1,11.39,22.22l1.15,89.06a4.53,4.53,0,0,1-4.48,4.59Z"/><path class="cls-7" d="M19,269.41A9.11,9.11,0,0,1,22.79,256L20,223.73l14.79,8,.38,29.39A9.16,9.16,0,0,1,19,269.41Z"/><path class="cls-9" d="M24.26,251.71a5.13,5.13,0,0,1-1.24-.15,5,5,0,0,1-3.6-3.61l-7.26-28.88a42.93,42.93,0,0,1,3.4-30l15.23-29.79a14.07,14.07,0,0,1,17-10,13.89,13.89,0,0,1,8.58,6.43,14.07,14.07,0,0,1,1.5,10.79L36.23,215l.26,29a5,5,0,0,1-3.25,4.72L26,251.4A4.9,4.9,0,0,1,24.26,251.71Z"/><path class="cls-7" d="M128,257.55a9.11,9.11,0,0,1-8-10.08,9.41,9.41,0,0,1,.32-1.58L94,227l15.72-6,22.53,18.89A9.15,9.15,0,0,1,128,257.55Z"/><path class="cls-9" d="M114.25,243.73a5.07,5.07,0,0,1-2.23-.52L85.39,229.88a42.93,42.93,0,0,1-20.52-22.16l-12.65-31a14.09,14.09,0,0,1,3.55-19.42A13.89,13.89,0,0,1,66.27,155a14.13,14.13,0,0,1,9.13,5.9L98,209l22.15,18.74a5,5,0,0,1,1.46,5.53l-2.69,7.25a5,5,0,0,1-4.67,3.25Z"/><path class="cls-8" d="M61.5,143.21c1.18.52,3.6-8.9,2.52-10.79-1.61-2.8-1.52-2.78-2.59-4.63s-1.31-4.39.08-6,4.59-1.42,5.22.63c-.4-3.88,3.44-7,7.24-7.88s7.82-.34,11.65-1.12c4.44-.9,9.06-4.63,7.29-9.51a6.84,6.84,0,0,0-1.35-2.2c-2-2.3-4.91-3.29-7.71-4.24-5.82-2-11.8-4-17.95-3.76a26.09,26.09,0,0,0-23.05,16.86,24.15,24.15,0,0,0-1,3.64c-2.11,11.35,4.48,22.54,15.18,26.86Z"/><polygon class="cls-10" points="35.23 244.65 35.74 214.83 51.54 183.06 38.86 215.67 35.23 244.65"/><path class="cls-4" d="M178.5,319.5l-66.7-27.71a10.4,10.4,0,0,1-6-6.83h0a10.5,10.5,0,0,1,1.64-9.09,182.55,182.55,0,0,0,32.54-78.33,10.54,10.54,0,0,1,5.29-7.58,10.39,10.39,0,0,1,9.11-.52L221,217.15a10.51,10.51,0,0,1,6.17,12.13,306.08,306.08,0,0,1-35.74,86A10.54,10.54,0,0,1,178.5,319.5Z"/><path class="cls-3" d="M152.24,194.46a4.94,4.94,0,0,0-4.37.25,5.12,5.12,0,0,0-2.57,3.69,188.12,188.12,0,0,1-33.52,80.67,5.12,5.12,0,0,0-.8,4.42h0a5,5,0,0,0,2.91,3.28l66.69,27.71a5.05,5.05,0,0,0,6.23-2A300.79,300.79,0,0,0,221.93,228a5.07,5.07,0,0,0-3-5.82Z"/><path class="cls-9" d="M187.76,256.14l-35-14.54a5.44,5.44,0,0,1-2.94-7.1l.82-2a5.44,5.44,0,0,1,7.1-2.94l35,14.55a5.43,5.43,0,0,1,2.93,7.1l-.81,2A5.43,5.43,0,0,1,187.76,256.14Z"/><path class="cls-9" d="M177.46,280.92l-35-14.54a5.43,5.43,0,0,1-2.93-7.1l.81-2a5.46,5.46,0,0,1,7.11-2.94l35,14.55a5.44,5.44,0,0,1,2.93,7.1l-.82,2A5.43,5.43,0,0,1,177.46,280.92Z"/><path class="cls-6" d="M201.78,221.32a4,4,0,0,1-1.53-.3L165,206.76a4.09,4.09,0,0,1-2.26-5.31l2.72-6.71a4.07,4.07,0,0,1,5.31-2.25L206,206.74a4.09,4.09,0,0,1,2.26,5.31l-2.72,6.72A4.09,4.09,0,0,1,201.78,221.32Z"/><path class="cls-6" d="M127.71,435H.91a.91.91,0,1,1,0-1.81h126.8a.91.91,0,0,1,0,1.81Z"/></g></g></svg>